<?xml version="1.0" encoding="UTF-8"?>
<svg id="Logo_2" data-name="Logo 2" xmlns="http://www.w3.org/2000/svg" xmlns:xlink="http://www.w3.org/1999/xlink" viewBox="0 0 86.47 82.914">
  <defs>
    <style>
      .cls-1 {
        fill: url(#linear-gradient-4);
      }

      .cls-2 {
        fill: url(#linear-gradient-3);
      }

      .cls-3 {
        fill: url(#linear-gradient-2);
      }

      .cls-4 {
        fill: url(#linear-gradient);
      }
    </style>
    <linearGradient id="linear-gradient" x1="12.882" y1="33.904" x2="73.588" y2="33.904" gradientUnits="userSpaceOnUse">
      <stop offset="0" stop-color="#3d879d"/>
      <stop offset=".999" stop-color="#2c3e50"/>
    </linearGradient>
    <linearGradient id="linear-gradient-2" x1="16.485" y1="68.075" x2="36.988" y2="68.075" xlink:href="#linear-gradient"/>
    <linearGradient id="linear-gradient-3" x1="49.471" y1="68.075" x2="70.006" y2="68.075" xlink:href="#linear-gradient"/>
    <linearGradient id="linear-gradient-4" x1="36.285" y1="29.799" x2="50.165" y2="29.799" xlink:href="#linear-gradient"/>
  </defs>
  <path class="cls-4" d="M30.475,62.22c-1.38-1.339-2.456-3.787-3.647-5.369-2.907-3.861-9.176-2.923-10.777-8.01-.773-2.455.253-5.335.382-7.824.223-4.293-4.079-7.071-3.497-11.692.416-3.308,4.15-5.156,6.085-7.533,2.172-2.668,1.399-7.182,3.595-9.896,2.538-3.138,6.271-2.173,9.767-2.59,3.982-.475,6.342-5.13,10.211-5.424,5.094-.388,7.007,4.891,11.481,5.424,2.783.332,5.92-.299,8.372,1.337,3.073,2.05,2.841,5.631,3.801,8.807,1.471,4.864,7.87,5.628,7.304,11.732-.204,2.196-2.224,4.819-3.047,6.914-1.508,3.841,1.519,8.194-.63,11.978-2.126,3.744-7.617,3.25-10.246,6.776-1.8,2.416-2.974,5.878-6.149,6.838-3.277.99-6.219-1.185-9.299-1.62-4.508-.636-9.319,4.406-13.706.151ZM56.785,49.404l.449-.119c13.926-13.949,1.732-37.721-17.879-34.016-14.784,2.793-21.289,21.168-11.384,32.623.177.205,1.534,1.704,1.703,1.511.931-5.24,5.406-9.566,10.588-10.658,7.499-1.58,15.035,3.12,16.523,10.659Z"/>
  <path class="cls-3" d="M36.988,66.3c-.9,1.352-5.465,12.507-6.14,12.712-.203.062-.454.066-.605-.107l-4.563-7.676-8.445,1.491-.59-.108-.161-.255,6.947-15.259c.332.216.665.402.945.691,1.21,1.247,2.32,3.737,3.48,5.22,2.253,2.883,5.541,3.882,9.131,3.29Z"/>
  <path class="cls-2" d="M69.867,72.572c-.14.138-.448.165-.643.148l-8.445-1.491-4.563,7.676c-.151.172-.402.168-.605.107-.676-.205-5.24-11.359-6.14-12.712,3.583.588,6.886-.401,9.131-3.29,1.141-1.468,2.288-4.008,3.48-5.22.106-.108.887-.695.945-.691l6.98,15.067c.004.12-.055.324-.14.407Z"/>
  <path class="cls-1" d="M43.019,22.705c9.379-.278,9.603,14.189.21,14.191-9.127.002-9.319-13.922-.21-14.191ZM46.784,27.252c-.371-.399-1.115-.487-1.591-.218l-2.972,2.699c-1.188-1.941-3.917-.727-2.415,1.22.166.215,1.067,1.092,1.301,1.283,1.067.875,1.5.481,2.44-.293.662-.545,2.715-2.32,3.15-2.902.391-.523.582-1.257.088-1.789Z"/>
</svg>