<?xml version="1.0" encoding="UTF-8"?>
<svg id="Logo_2" data-name="Logo 2" xmlns="http://www.w3.org/2000/svg" xmlns:xlink="http://www.w3.org/1999/xlink" viewBox="0 0 86.47 82.914">
  <defs>
    <style>
      .cls-1 {
        fill: url(#linear-gradient-8);
      }

      .cls-2 {
        fill: url(#linear-gradient-7);
      }

      .cls-3 {
        fill: url(#linear-gradient-5);
      }

      .cls-4 {
        fill: url(#linear-gradient-6);
      }

      .cls-5 {
        fill: url(#linear-gradient-9);
      }

      .cls-6 {
        fill: url(#linear-gradient-4);
      }

      .cls-7 {
        fill: url(#linear-gradient-3);
      }

      .cls-8 {
        fill: url(#linear-gradient-2);
      }

      .cls-9 {
        fill: url(#linear-gradient);
      }

      .cls-10 {
        fill: url(#linear-gradient-10);
      }

      .cls-11 {
        fill: url(#linear-gradient-11);
      }

      .cls-12 {
        fill: url(#linear-gradient-12);
      }

      .cls-13 {
        fill: url(#linear-gradient-13);
      }

      .cls-14 {
        fill: url(#linear-gradient-14);
      }

      .cls-15 {
        fill: url(#linear-gradient-15);
      }

      .cls-16 {
        fill: url(#linear-gradient-16);
      }
    </style>
    <linearGradient id="linear-gradient" x1="42.748" y1="62.668" x2="77.105" y2="62.668" gradientUnits="userSpaceOnUse">
      <stop offset="0" stop-color="#3d879d"/>
      <stop offset=".999" stop-color="#2c3e50"/>
    </linearGradient>
    <linearGradient id="linear-gradient-2" x1="27.936" y1="28.18" x2="34.249" y2="28.18" xlink:href="#linear-gradient"/>
    <linearGradient id="linear-gradient-3" x1="13.425" y1="59.459" x2="48.768" y2="59.459" xlink:href="#linear-gradient"/>
    <linearGradient id="linear-gradient-4" x1="42.99" y1="32.189" x2="76.862" y2="32.189" xlink:href="#linear-gradient"/>
    <linearGradient id="linear-gradient-5" x1="40.699" y1="43.425" x2="79.115" y2="43.425" xlink:href="#linear-gradient"/>
    <linearGradient id="linear-gradient-6" x1="8.641" y1="38.631" x2="21.528" y2="38.631" xlink:href="#linear-gradient"/>
    <linearGradient id="linear-gradient-7" x1="63.116" y1="17.771" x2="75.914" y2="17.771" xlink:href="#linear-gradient"/>
    <linearGradient id="linear-gradient-8" x1="44.933" y1="71.059" x2="53.492" y2="71.059" xlink:href="#linear-gradient"/>
    <linearGradient id="linear-gradient-9" x1="8.677" y1="71.059" x2="17.253" y2="71.059" xlink:href="#linear-gradient"/>
    <linearGradient id="linear-gradient-10" x1="40.7" y1="21.006" x2="50.298" y2="21.006" xlink:href="#linear-gradient"/>
    <linearGradient id="linear-gradient-11" x1="10.314" y1="19.364" x2="19.875" y2="19.364" xlink:href="#linear-gradient"/>
    <linearGradient id="linear-gradient-12" x1="23.08" y1="51.395" x2="39.106" y2="51.395" xlink:href="#linear-gradient"/>
    <linearGradient id="linear-gradient-13" x1="18.345" y1="71.47" x2="23.323" y2="71.47" xlink:href="#linear-gradient"/>
    <linearGradient id="linear-gradient-14" x1="39.045" y1="71.47" x2="43.84" y2="71.47" xlink:href="#linear-gradient"/>
    <linearGradient id="linear-gradient-15" x1="32.671" y1="71.47" x2="36.435" y2="71.47" xlink:href="#linear-gradient"/>
    <linearGradient id="linear-gradient-16" x1="25.751" y1="71.47" x2="29.515" y2="71.47" xlink:href="#linear-gradient"/>
  </defs>
  <path class="cls-9" d="M77.105,48.282l-2.586,25.033c-.149,1.493-2.316,3.739-3.788,3.739h-14.872c1.174-2.16.993-3.945.143-6.152-1.194-3.099-2.878-6.151-4.095-9.259-.212-2.916.526-5.33-1.41-7.817-1.851-2.377-4.561-2.519-7.368-2.405l-.382-3.139h34.357Z"/>
  <path class="cls-8" d="M34.249,46.583h-6.313V12.166c0-.113.587-1.175.729-1.335,1.43-1.614,4.237-1.337,5.245.581.077.146.339.773.339.875v34.295Z"/>
  <path class="cls-7" d="M16.007,56.324l30.069-.018c1.311.279,2.444,1.371,2.607,2.734.156,1.309.293,3.535-1.499,3.572l-32.408-.016c-1.547-.209-1.424-2.487-1.254-3.66.186-1.282,1.262-2.298,2.486-2.613Z"/>
  <path class="cls-6" d="M76.862,38.57h-3.339c-1.098-2.735-2.775-5.111-5.173-6.846-7.784-5.631-18.84-2.148-21.961,6.846h-3.399c1.648-5.898,6.556-10.692,12.503-12.202,9.365-2.378,18.649,3.035,21.369,12.202Z"/>
  <path class="cls-3" d="M78.642,42.254c.839.814.514,2.313-.588,2.669l-35.854.082c-1.937-.182-2.023-2.816-.124-3.16l35.977.085c.19.091.437.177.588.323Z"/>
  <path class="cls-4" d="M14.67,32.286c1.916-.394,2.267,2.031,3.249,3.129.838.937,2.956,1.61,3.391,2.436,1.015,1.924-1.786,2.587-2.845,3.449-1.084.883-1.901,3.307-2.823,3.61-1.935.637-2.274-1.689-3.183-2.821-.215-.268-.769-.822-1.041-1.023-1.039-.769-3.439-1.245-2.603-3.104.395-.877,2.753-1.677,3.682-2.872.622-.8,1.157-2.595,2.173-2.804Z"/>
  <path class="cls-2" d="M75.368,16.514c.149.125.48.667.516.879.305,1.828-1.769,2.11-2.908,3.027-.282.227-.733.7-.949.993-.854,1.164-1.057,3.077-2.968,2.682-.991-.205-1.755-2.517-2.59-3.358-1.147-1.155-3.76-1.432-3.3-3.448.216-.946,2.437-1.685,3.253-2.452,1.159-1.089,1.743-4.192,3.763-3.28.935.422,1.519,2.419,2.424,3.281.81.772,2.044,1.076,2.758,1.674Z"/>
  <path class="cls-1" d="M47.664,65.885c.775-.092,1.546-.538,2.244-.85l3.217,7.286c1.003,1.991-.136,4.501-2.427,4.731-.417.042-3.442.054-3.588-.051l-2.177-11.116c.868-.074,1.883.101,2.732,0Z"/>
  <path class="cls-5" d="M17.253,65.885l-2.177,11.116c-.146.105-3.171.093-3.588.051-1.991-.2-3.237-2.256-2.675-4.128l3.464-7.888c.582.238,1.629.85,2.244.85h2.732Z"/>
  <path class="cls-10" d="M47.118,19.389c1.43-.167,3.536-.008,3.128,1.976-.065.317-.709,1.181-1.004,1.181h-2.125v1.882c0,.625-.988,1.401-1.626,1.386-1.921-.044-1.378-2.017-1.669-3.251-.958-.103-2.268.3-2.878-.703-.616-1.012-.01-2.296,1.146-2.46.391-.055,1.658.106,1.818-.124.202-.971-.325-2.326.775-2.867.739-.364,1.643-.274,2.126.437.061.09.309.614.309.662v1.882Z"/>
  <path class="cls-11" d="M19.401,20.566c-.69.623-1.811.292-2.642.454-.286.989.282,2.75-1.171,3.078-2.062.465-2.193-1.524-2.152-3.017-.242-.348-2.45.365-2.991-1.015-.233-.594-.167-1.389.293-1.849.702-.702,1.769-.258,2.637-.458.226-.157.068-1.506.141-1.922.209-1.181,1.701-1.697,2.636-.871.909.804.235,2.534.606,2.793.881.202,2.079-.267,2.735.543.515.636.53,1.703-.093,2.265Z"/>
  <path class="cls-12" d="M39.105,53.017h-16.025c.08-1.694,1.26-3.032,2.969-3.161,3.386-.256,7.117.177,10.538.034,1.411.352,2.537,1.638,2.518,3.127Z"/>
  <polygon class="cls-13" points="23.323 65.885 22.595 77.054 18.345 77.054 20.531 65.885 23.323 65.885"/>
  <polygon class="cls-14" points="41.655 65.885 43.84 77.054 39.591 77.054 39.045 65.885 41.655 65.885"/>
  <polygon class="cls-15" points="35.706 65.885 36.435 77.054 32.671 77.054 32.671 65.885 35.706 65.885"/>
  <polygon class="cls-16" points="29.515 65.885 29.515 77.054 25.751 77.054 26.479 65.885 29.515 65.885"/>
</svg>