<?xml version="1.0" encoding="UTF-8"?>
<svg id="Logo_2" data-name="Logo 2" xmlns="http://www.w3.org/2000/svg" xmlns:xlink="http://www.w3.org/1999/xlink" viewBox="0 0 86.47 82.914">
  <defs>
    <style>
      .cls-1 {
        fill: url(#linear-gradient-2);
      }

      .cls-2 {
        fill: url(#linear-gradient);
      }
    </style>
    <linearGradient id="linear-gradient" x1="10.597" y1="41.457" x2="75.873" y2="41.457" gradientUnits="userSpaceOnUse">
      <stop offset="0" stop-color="#3d879d"/>
      <stop offset=".999" stop-color="#2c3e50"/>
    </linearGradient>
    <linearGradient id="linear-gradient-2" x1="20.698" y1="41.443" x2="65.831" y2="41.443" xlink:href="#linear-gradient"/>
  </defs>
  <path class="cls-2" d="M10.626,39.148C12.327,11.594,46.53-1.376,66.296,18.284c19.823,19.716,6.905,54.091-20.737,55.797h-4.59l-3.083-.423c-13.85-2.232-25.125-13.788-26.987-27.708-.096-.72-.074-1.526-.273-2.213.068-1.507-.092-3.092,0-4.59ZM41.326,15.09c-20.179,1.328-31.334,24.594-19.839,41.31,10.304,14.984,32.542,15.309,43.173.51,13.14-18.29-1.002-43.29-23.334-41.821Z"/>
  <path class="cls-1" d="M41.352,18.877v4.399c0,.69,1.151,1.577,1.853,1.6.748.024,1.972-.856,1.972-1.6v-4.399c10.853.892,19.737,9.811,20.654,20.654h-4.399c-.69,0-1.577,1.151-1.6,1.853-.024.748.856,1.972,1.6,1.972h4.399c-.921,10.859-9.793,19.739-20.654,20.654v-4.399c0-.69-1.151-1.577-1.853-1.6-.748-.024-1.972.856-1.972,1.6v4.399c-10.856-.932-19.738-9.789-20.654-20.654h4.399c.69,0,1.577-1.151,1.6-1.853.024-.748-.856-1.972-1.6-1.972h-4.399c.915-10.86,9.796-19.734,20.654-20.654ZM53.048,29.105c-.391.067-.763.349-1.053.606l-8.812,9.046c-.098.017-.787-.565-.941-.69-1.682-1.368-3.701-3.668-5.415-4.784-1.631-1.062-3.441.26-2.937,2.173.111.42.532.782.831,1.081,1.757,1.763,5.095,4.706,7.081,6.179,1.079.8,1.842.877,2.929.003l10.374-10.79c.797-1.431-.481-3.093-2.056-2.823Z"/>
</svg>