<?xml version="1.0" encoding="UTF-8"?>
<svg id="Logo_2" data-name="Logo 2" xmlns="http://www.w3.org/2000/svg" xmlns:xlink="http://www.w3.org/1999/xlink" viewBox="0 0 86.47 82.914">
  <defs>
    <style>
      .cls-1 {
        fill: url(#linear-gradient);
      }
    </style>
    <linearGradient id="linear-gradient" x1="13.468" y1="41.457" x2="73.002" y2="41.457" gradientUnits="userSpaceOnUse">
      <stop offset="0" stop-color="#caa961"/>
      <stop offset=".999" stop-color="#f9d73a"/>
    </linearGradient>
  </defs>
  <path class="cls-1" d="M45.862,17.971c.187.047.214-.077.322-.16,1.17-.896,2.67-3.28,4.137-3.476,2.524-.338,4.018,2.607,2.352,4.496l-6.811,6.809v11.099l.399-.084,9.304-5.388,2.626-9.599c.778-1.722,3.109-2.158,4.404-.749,1.572,1.71-.203,4.526-.431,6.49,2.27-1.08,4.342-2.644,6.577-3.771,3.214-1.62,5.583,1.543,3.391,4.141l-7.286,4.296c1.301.485,2.85.641,4.132,1.122,3.011,1.13,2.086,5.558-1.371,5.124-2.782-.349-6.085-1.973-8.87-2.391-.159-.024-.313-.082-.478-.047l-9.607,5.47.067.221,9.54,5.459,9.44-2.454c3.244-.447,4.353,3.987,1.28,5.14-1.282.481-2.831.636-4.132,1.122,1.948,1.272,4.064,2.282,6.038,3.507.763.474,1.486.791,1.875,1.664.961,2.16-1.072,4.407-3.298,3.62l-7.295-4.125c.229,1.966,2.003,4.781.431,6.49-1.294,1.407-3.625.974-4.404-.749l-2.626-9.599-9.304-5.388-.399-.084v11.099l6.811,6.809c1.666,1.889.172,4.834-2.352,4.496-1.468-.197-2.967-2.58-4.137-3.476-.108-.083-.135-.207-.322-.16v8.418c0,.063-.29.705-.36.82-1.026,1.699-3.51,1.699-4.535,0-.07-.115-.36-.757-.36-.82v-8.418c-.187-.047-.214.077-.322.16-1.17.896-2.67,3.28-4.137,3.476-2.524.338-4.018-2.607-2.352-4.496l6.811-6.809v-11.099c-.376.058-.792.327-1.145.518-2.894,1.566-5.669,3.376-8.558,4.955l-2.579,9.432c-.658,1.856-3.111,2.373-4.451.917-1.572-1.71.203-4.526.431-6.49-2.248,1.073-4.364,2.671-6.577,3.771-.225.112-.49.28-.719.354-2.824.919-4.728-2.472-2.672-4.495l7.286-4.296c-1.313-.512-2.819-.636-4.132-1.122-3.135-1.16-1.898-5.691,1.371-5.124l9.349,2.438,9.606-5.471-.067-.221-9.54-5.46-9.44,2.454c-3.233.45-4.355-4.003-1.28-5.14,1.314-.486,2.819-.61,4.132-1.122-1.938-1.289-4.062-2.286-6.038-3.506-.753-.465-1.495-.815-1.874-1.665-.961-2.16,1.072-4.407,3.298-3.62l7.295,4.125c-.229-1.966-2.003-4.781-.431-6.49,1.339-1.456,3.793-.94,4.451.917l2.579,9.432,9.304,5.388.399.084v-11.099l-6.811-6.809c-1.666-1.889-.172-4.834,2.352-4.496,1.468.197,2.967,2.58,4.137,3.476.108.083.135.207.322.16v-8.418c0-.063.29-.705.36-.82,1.026-1.699,3.51-1.699,4.535,0,.07.115.36.757.36.82v8.418Z"/>
</svg>