<?xml version="1.0" encoding="UTF-8"?>
<svg id="Logo_2" data-name="Logo 2" xmlns="http://www.w3.org/2000/svg" xmlns:xlink="http://www.w3.org/1999/xlink" viewBox="0 0 86.47 82.914">
  <defs>
    <style>
      .cls-1 {
        fill: url(#linear-gradient-2);
      }

      .cls-2 {
        fill: url(#linear-gradient);
      }
    </style>
    <linearGradient id="linear-gradient" x1="5.931" y1="36.418" x2="80.539" y2="36.418" gradientUnits="userSpaceOnUse">
      <stop offset="0" stop-color="#3d879d"/>
      <stop offset=".999" stop-color="#2c3e50"/>
    </linearGradient>
    <linearGradient id="linear-gradient-2" x1="16.077" y1="65.225" x2="70.398" y2="65.225" xlink:href="#linear-gradient"/>
  </defs>
  <path class="cls-2" d="M76.068,34.636c-1.739,6.973-3.268,14.004-4.998,20.979-.163.658-.419,2.134-.662,2.637-.052.108-.059.232-.204.268l-53.835.018c-.386-.072-.469-.947-.566-1.319-1.952-7.46-3.461-15.05-5.377-22.52-4.327-.648-6.12-6.052-2.718-8.973,3.011-2.585,7.8-.823,8.335,3.097.057.418-.067,1.258.149,1.5l14.653,7.233,9.577-13.652c.087-.313-.632-.71-.901-1.002-2.22-2.418-1.685-6.284,1.179-7.898,5.031-2.835,10.18,3.499,6.25,7.898-.267.299-.989.684-.901,1.002l9.501,13.609.354.004,14.376-7.194c.236-.265.072-.998.129-1.403.611-4.332,6.148-5.978,8.94-2.602,2.597,3.14.686,7.821-3.282,8.317Z"/>
  <path class="cls-1" d="M16.254,61.834h53.967l.177.177v5.066c0,.618-.757,1.476-1.407,1.538l-51.596-.029c-.611-.063-1.318-.943-1.318-1.51v-5.066l.177-.177Z"/>
</svg>