<?xml version="1.0" encoding="UTF-8"?>
<svg id="Logo_2" data-name="Logo 2" xmlns="http://www.w3.org/2000/svg" xmlns:xlink="http://www.w3.org/1999/xlink" viewBox="0 0 86.47 82.914">
  <defs>
    <style>
      .cls-1 {
        fill: url(#linear-gradient);
      }
    </style>
    <linearGradient id="linear-gradient" x1="15.592" y1="41.457" x2="70.878" y2="41.457" gradientUnits="userSpaceOnUse">
      <stop offset="0" stop-color="#3d879d"/>
      <stop offset=".999" stop-color="#2c3e50"/>
    </linearGradient>
  </defs>
  <path class="cls-1" d="M43.072,33.444l.34-.004c3.541-8.052,6.969-16.164,10.585-24.183.432-.958,1.342-3.36,1.884-4.056.538-.691,1.161-.782,1.924-.411,3.803,1.847,6.237,5.584,5.098,9.88l-13.544,32.8,3.386,7.746c.904-.223,1.75-.742,2.668-.983,8.418-2.21,16.483,4.724,15.359,13.38-1.454,11.19-15.863,14.785-22.207,5.234-2.738-4.122-1.697-7.364-2.85-11.708-.484-1.822-1.343-3.531-2.36-5.104-.154-.012-.185-.026-.295.079-.398.381-1.469,2.657-1.71,3.272-1.243,3.17-.896,5.313-1.323,8.46-1.448,10.684-15.421,14.348-21.929,5.653-7.008-9.363,1.755-22.259,13.066-19.24.415.111,2.466,1.037,2.579.956l3.386-7.746c-.767-2.006-1.573-4.001-2.389-5.988-3.783-9.218-7.912-18.329-11.342-27.675-.398-2.865.609-5.541,2.844-7.382.458-.377,2.575-1.816,3.04-1.861.57-.055,1.036.271,1.376.701l12.414,28.177ZM42.808,44.54c-2.245.291-3.425,2.984-2.119,4.854,1.239,1.773,3.871,1.773,5.109,0,1.548-2.215-.324-5.2-2.991-4.854ZM27.205,59.916c-8.738,1.042-6.142,14.666,2.533,12.084,7.031-2.092,4.794-12.958-2.533-12.084ZM54.174,70.441c5.813,5.877,14.693-3.079,8.682-8.857-5.771-5.548-14.281,3.196-8.682,8.857Z"/>
</svg>