<?xml version="1.0" encoding="UTF-8"?>
<svg id="Logo_2" data-name="Logo 2" xmlns="http://www.w3.org/2000/svg" xmlns:xlink="http://www.w3.org/1999/xlink" viewBox="0 0 86.47 82.914">
  <defs>
    <style>
      .cls-1 {
        fill: url(#linear-gradient);
      }
    </style>
    <linearGradient id="linear-gradient" x1="17.652" y1="42.524" x2="67.314" y2="42.524" gradientUnits="userSpaceOnUse">
      <stop offset="0" stop-color="#3d879d"/>
      <stop offset=".999" stop-color="#2c3e50"/>
    </linearGradient>
  </defs>
  <path class="cls-1" d="M65.832,39.173c.15.015.162.151.201.261.157.446.27,1.202.367,1.695,1.651,8.427,1.447,18.219-3.826,25.358-3.395,4.596-8.817,7.62-14.477,8.36l1.789-.735c8.014-3.757,9.107-11.373,4.749-18.639-.171-.285-1.235-1.946-1.381-2.025-.238-.129-.697.614-.88.778-.29.261-2.512,1.985-2.731,1.753-.058-2.376-.923-4.413-2.082-6.424-1.285-2.229-2.507-3.224-2.247-6.102.087-.957.539-1.808.719-2.734-6.576,2.777-9.887,8.812-10.515,15.725-.062.683.246,1.8-.561,2.119-1.295.512-2.579-1.458-3.307-2.273-.155-.001-.496,2.261-.535,2.556-.812,6.079.532,12.338,6.427,15.265l2.717,1.045c-10.255-1.03-20.696-7.864-22.356-18.627-1.283-8.316,2.518-16.197,7.255-22.723.152-.026.202.02.304.111.405.36.888,1.086,1.302,1.482,1.452,1.389,3.315,2.64,5.144,3.464.13-2.815.733-5.546,1.808-8.142,2.92-7.05,8.458-9.827,5.69-18.585-.11-.348-.909-2.09-.795-2.246,8.53,3.495,14.99,10.86,17.941,19.537,1.181,3.472,1.762,7.072,2.059,10.726.046.564-.008,2.424.202,2.788.256.446.988.854,1.506.874,2.072.082,4.507-3.036,5.512-4.643Z"/>
</svg>