<?xml version="1.0" encoding="UTF-8"?>
<svg id="Logo_2" data-name="Logo 2" xmlns="http://www.w3.org/2000/svg" xmlns:xlink="http://www.w3.org/1999/xlink" viewBox="0 0 86.47 82.914">
  <defs>
    <style>
      .cls-1 {
        fill: url(#linear-gradient-4);
      }

      .cls-2 {
        fill: url(#linear-gradient-3);
      }

      .cls-3 {
        fill: url(#linear-gradient-2);
      }

      .cls-4 {
        fill: url(#linear-gradient);
      }
    </style>
    <linearGradient id="linear-gradient" x1="15.999" y1="31.34" x2="70.473" y2="31.34" gradientUnits="userSpaceOnUse">
      <stop offset="0" stop-color="#3d879d"/>
      <stop offset=".999" stop-color="#2c3e50"/>
    </linearGradient>
    <linearGradient id="linear-gradient-2" x1="9.004" y1="69.067" x2="77.466" y2="69.067" xlink:href="#linear-gradient"/>
    <linearGradient id="linear-gradient-3" x1="40.825" y1="27.365" x2="45.631" y2="27.365" xlink:href="#linear-gradient"/>
    <linearGradient id="linear-gradient-4" x1="40.941" y1="39.95" x2="45.553" y2="39.95" xlink:href="#linear-gradient"/>
  </defs>
  <path class="cls-4" d="M39.6,4.17c2.221.113,4.768-.243,6.95-.033,2.603.251,2.025,5.478,3.87,6.528.377.215,2.168.939,2.561.993,1.933.264,4.851-3.305,6.969-2.015,1.373,1.45,3.211,2.875,4.494,4.367.61.709.904,1.339.655,2.306-.286,1.108-1.592,2.882-2.054,4.09-.214.559-.324.687-.173,1.32.202.844,1.02,2.761,1.808,3.154,1.283.638,4.354,1.045,5.199,2.008.219.25.416.621.463.955.197,1.39.144,5.151.015,6.611-.255,2.895-5.22,2.012-6.526,4.108-.244.391-1.04,2.339-1.04,2.74,0,.225.105.544.18.765.523,1.548,2.454,3.737,2.155,5.352-.055.296-.225.546-.396.785-.409.573-4.495,4.622-4.966,4.841-.176.082-.443.173-.633.2-1.238.174-3.643-1.571-4.925-2.06-.635-.242-.847-.339-1.556-.173-.858.202-2.632,1-3.035,1.808-.626,1.254-1.059,4.496-2.073,5.252-.235.175-.717.37-1.008.41-1.297.177-5.163.16-6.489.011-.838-.094-1.423-.545-1.772-1.301-.625-1.356-.979-4.466-2.197-5.247-.502-.323-2.438-1.059-3-1.018-1.064.078-3.285,1.653-4.405,2.099-.863.344-1.554.351-2.332-.206-.833-.597-3.817-3.633-4.492-4.488-1.497-1.897.874-4.213,1.581-6.101.09-.241.232-.579.244-.828.027-.541-.973-2.941-1.363-3.339-.891-.91-3.965-1.209-5.17-1.919-.474-.279-.936-.919-1.011-1.47-.19-1.4-.152-5.157-.015-6.611.263-2.797,5.348-2.003,6.527-3.989.268-.452,1.077-2.51,1.034-2.963-.018-.19-.113-.367-.174-.544-.428-1.233-1.93-3.248-2.157-4.341-.193-.932.093-1.539.683-2.218.901-1.037,2.685-2.8,3.722-3.722.899-.799,1.435-1.19,2.69-.801,1.275.396,3.504,2.115,4.664,2.189.479.03,2.577-.773,3.026-1.051,1.596-.988,1.404-6.034,3.471-6.454ZM41.499,15.757c-11.901,1.11-17.954,15.528-10.659,25.003,6.954,9.033,20.978,7.879,26.223-2.232,5.791-11.164-3.133-23.93-15.564-22.771Z"/>
  <path class="cls-3" d="M15.858,59.355c3.388-.365,6.703.822,8.883,3.454.486.587.832,1.661,1.591,1.717l34.034-.01c.406-.076,1.03-1.302,1.365-1.707,3.715-4.485,10.751-4.719,14.709-.419.581.631,1.851,2.179.237,2.367-2.118.247-4.704-.205-6.861-.008-.431.039-.6.072-.863.437-.408.566-1.65,2.686-1.896,3.302-.151.378-.187.591-.074.997.099.358,1.679,3.053,1.973,3.461.099.137.189.279.336.373l7.494.068c1.767.289-.415,2.498-.996,3.008-4.088,3.591-10.4,3.197-13.947-.944-.351-.409-1.095-1.76-1.477-1.831l-34.151-.009c-.574.075-1.067,1.223-1.474,1.716-3.746,4.523-10.811,4.716-14.769.361-.43-.473-1.575-1.791-.557-2.217l7.766-.151c.148-.093.237-.235.336-.373.337-.468,1.785-2.918,1.938-3.378.115-.347.135-.558.035-.918-.096-.347-1.683-3.065-1.971-3.464-.263-.365-.432-.398-.863-.437-2.118-.193-4.975.324-6.97-.001-1.501-.244-.127-1.855.404-2.418,1.395-1.481,3.732-2.755,5.769-2.975Z"/>
  <path class="cls-2" d="M42.673,20.358c1.088-.185,2.244.184,2.718,1.243.495,1.105.078,3.097.026,4.336-.085,2.02-.07,4.141-.233,6.147-.084,1.028-.366,2.159-1.591,2.308-1.666.202-2.188-.854-2.306-2.308-.261-3.21-.194-6.466-.463-9.678.18-.979.817-1.874,1.849-2.049Z"/>
  <path class="cls-1" d="M43.034,37.605c2.578-.252,3.494,3.419,1.235,4.434-3.431,1.542-4.795-4.086-1.235-4.434Z"/>
</svg>