<?xml version="1.0" encoding="UTF-8"?>
<svg id="Logo_2" data-name="Logo 2" xmlns="http://www.w3.org/2000/svg" xmlns:xlink="http://www.w3.org/1999/xlink" viewBox="0 0 86.47 82.914">
  <defs>
    <style>
      .cls-1 {
        fill: url(#linear-gradient-3);
      }

      .cls-2 {
        fill: url(#linear-gradient-2);
      }

      .cls-3 {
        fill: url(#linear-gradient);
      }
    </style>
    <linearGradient id="linear-gradient" x1="11.366" y1="20.565" x2="75.104" y2="20.565" gradientUnits="userSpaceOnUse">
      <stop offset="0" stop-color="#3d879d"/>
      <stop offset=".999" stop-color="#2c3e50"/>
    </linearGradient>
    <linearGradient id="linear-gradient-2" x1="46.493" y1="60.169" x2="70.713" y2="60.169" xlink:href="#linear-gradient"/>
    <linearGradient id="linear-gradient-3" x1="15.757" y1="60.169" x2="39.977" y2="60.169" xlink:href="#linear-gradient"/>
  </defs>
  <path class="cls-3" d="M25.955,5.212c2.068.372,3.931,1.122,5.592,2.411l11.637,11.46c1.441-1.327,2.953-2.712,4.374-4.091,2.662-2.584,6.779-7.607,10.028-8.955.957-.397,1.938-.563,2.929-.824.909.07,1.942-.096,2.833,0,1.354.145,3.489,1.055,4.635,1.809,4.458,2.934,6.154,8.715,4.005,13.628,1.212-.227,3.116,1.489,3.116,2.622v12.677h-28.612v-8.782h-6.515v8.782H11.366v-12.677c0-1.133,1.904-2.849,3.116-2.622-2.193-5.038-.381-10.909,4.261-13.797,1.069-.665,3.142-1.507,4.38-1.64h2.833ZM35.02,20.509l-7.72-7.79c-3.498-2.508-8.253.711-6.877,4.894.374,1.136,1.949,2.896,3.194,2.896h11.402ZM51.45,20.509h11.402c1.206,0,2.768-1.7,3.156-2.793,1.489-4.2-3.266-7.545-6.838-4.997l-7.72,7.79Z"/>
  <path class="cls-2" d="M70.713,42.605v32.507c0,.884-1.743,2.62-2.62,2.62h-21.6v-30.453c1.909,1.499,3.522,3.826,5.381,5.313,3.472,2.777,7.42-1.282,4.748-4.607-1.495-1.86-3.809-3.471-5.313-5.381h19.405Z"/>
  <path class="cls-1" d="M35.161,42.605c-1.505,1.909-3.818,3.521-5.313,5.381-2.672,3.324,1.277,7.384,4.748,4.607,1.858-1.487,3.472-3.815,5.381-5.313v30.453h-21.6c-.884,0-2.62-1.743-2.62-2.62v-32.507h19.405Z"/>
</svg>