<?xml version="1.0" encoding="UTF-8"?>
<svg id="Logo_2" data-name="Logo 2" xmlns="http://www.w3.org/2000/svg" xmlns:xlink="http://www.w3.org/1999/xlink" viewBox="0 0 86.47 82.914">
  <defs>
    <style>
      .cls-1 {
        fill: url(#linear-gradient-3);
      }

      .cls-2 {
        fill: url(#linear-gradient-2);
      }

      .cls-3 {
        fill: url(#linear-gradient);
      }
    </style>
    <linearGradient id="linear-gradient" x1="4.674" y1="34.473" x2="81.83" y2="34.473" gradientUnits="userSpaceOnUse">
      <stop offset="0" stop-color="#caa961"/>
      <stop offset=".999" stop-color="#f9d73a"/>
    </linearGradient>
    <linearGradient id="linear-gradient-2" x1="17.281" y1="43.723" x2="69.248" y2="43.723" xlink:href="#linear-gradient"/>
    <linearGradient id="linear-gradient-3" x1="1.579" y1="53.856" x2="84.946" y2="53.856" xlink:href="#linear-gradient"/>
  </defs>
  <path class="cls-3" d="M72.511,47.571c3.659-6.988-3.021-11.665-8.77-13.943-11.794-4.674-31.712-4.651-43.176.973-3.954,1.94-8.662,5.767-7.437,10.745.195.792.652,1.456.881,2.226-5.97-2.482-12.416-8.366-7.719-15.131,5.524-7.955,23.774-10.684,32.819-11.016,10.818-.397,34.203,1.303,41.05,10.927,4.786,6.726-1.637,12.763-7.649,15.219Z"/>
  <path class="cls-2" d="M18.689,46.561c-3.565-3.563.383-6.373,3.603-8.001,10.282-5.197,35.563-5.695,44.785,1.774,7.613,6.165-6.902,10.422-11.271,11.337-9.136,1.913-30.077,1.928-37.117-5.109Z"/>
  <path class="cls-1" d="M1.579,42.314l1.989,3.03c7.901,9.533,29.606,12.216,41.294,11.96,10.987-.241,31.834-3.046,38.62-12.706l1.464-2.362c-2.506,10.12-12.424,16.76-21.758,20.004-14.49,5.037-33.006,4.3-46.631-2.948-6.725-3.578-13.102-9.339-14.979-16.978Z"/>
</svg>