<?xml version="1.0" encoding="UTF-8"?>
<svg id="Logo_2" data-name="Logo 2" xmlns="http://www.w3.org/2000/svg" xmlns:xlink="http://www.w3.org/1999/xlink" viewBox="0 0 86.47 82.914">
  <defs>
    <style>
      .cls-1 {
        fill: url(#linear-gradient-4);
      }

      .cls-2 {
        fill: url(#linear-gradient-3);
      }

      .cls-3 {
        fill: url(#linear-gradient-2);
      }

      .cls-4 {
        fill: url(#linear-gradient);
      }
    </style>
    <linearGradient id="linear-gradient" x1="7.937" y1="48.716" x2="73.666" y2="48.716" gradientUnits="userSpaceOnUse">
      <stop offset="0" stop-color="#3d879d"/>
      <stop offset=".999" stop-color="#2c3e50"/>
    </linearGradient>
    <linearGradient id="linear-gradient-2" x1="24.974" y1="24.46" x2="53.348" y2="24.46" xlink:href="#linear-gradient"/>
    <linearGradient id="linear-gradient-3" x1="56.609" y1="18.844" x2="73.537" y2="18.844" xlink:href="#linear-gradient"/>
    <linearGradient id="linear-gradient-4" x1="54.033" y1="60.713" x2="59.534" y2="60.713" xlink:href="#linear-gradient"/>
  </defs>
  <path class="cls-4" d="M20.714,63.827v8.355l.156.156h5.916l.156-.156v-18.112c-.527.064-.809.632-1.196.932-2.003,1.549-4.21-.601-2.851-2.643l23.821-21.226c.981-.732,2.074-.503,2.903.314l13.756,12.245v-6.798c0-.151.393-.904.517-1.04,1.082-1.18,3.247-.492,3.327,1.139l.013,10.159,5.945,5.369c1.047,1.527-.38,3.457-2.196,2.922-.563-.166-1.122-.86-1.585-1.217-.105-.081-.132-.199-.312-.155v18.112l.156.156h3.01c.251,0,.919.56,1.073.795.772,1.181.167,2.454-1.039,2.975l-62.623.07c-1.661-.283-2.381-2.375-.977-3.468.11-.086.575-.372.666-.372h7.37l.156-.156v-8.2c-.587-.375-1.269-.572-1.859-.943-5.234-3.297-7.275-13.34-6.968-19.093.358-6.704,4.376-14.93,8.12-20.423.454-.666,1.209-1.942,1.982-2.17.78-.23,1.535-.056,2.093.548.874.947,2.139,3.147,2.84,4.321,2.156,3.612,4.253,7.887,5.388,11.946.188.672.781,2.732.747,3.3-.011.191-.269.382-.405.512-2.51,2.392-5.321,4.515-7.84,6.898-.808.764-1.61,1.6-1.998,2.673-.968,2.679.144,5.908,2.709,7.208.394.2,1.335.336,1.417.763.057.295.035,2.869-.051,3.058-.643.576-1.474,1.107-2.334,1.247ZM32.028,55.575v16.607l.156.156h3.529l.156-.156v-14.116l.156-.156h3.529l.156.156v14.116l.156.156h3.529l.156-.156v-16.503c0-.046-.269-.62-.328-.71-.442-.672-1.14-.851-1.899-.904-1.925-.133-5.48-.181-7.361.018-.621.066-1.182.317-1.563.824-.055.074-.361.623-.37.668ZM52.036,54.097c-1.133.202-1.729.852-1.843,1.998.212,2.961-.288,6.323,0,9.236.107,1.085.689,1.825,1.811,1.925,3.07.275,6.544-.214,9.658-.004,1.056-.131,1.629-.902,1.716-1.917.254-2.951-.2-6.256,0-9.245-.073-1.2-.854-1.903-2.029-2.019-2.925-.291-6.338.193-9.314.026Z"/>
  <path class="cls-3" d="M53.306,29.471c-.179.046-.208-.074-.312-.154-.659-.51-1.198-1.167-1.916-1.613-2.155-1.338-4.859-1.156-6.803.468l-11.463,10.23-.368.099c.002-.433-.119-.858-.237-1.268-1.564-5.421-4.19-10.475-7.211-15.209-.15-.56.534-2.297.788-2.898,4.609-10.894,19.849-11.78,25.673-1.454,2.146,3.806,1.921,7.552,1.85,11.798Z"/>
  <path class="cls-2" d="M59.051,24.868c-4.564-4.598-2.418-12.555,3.829-14.21,7.201-1.908,13.136,5.765,9.61,12.308-2.648,4.913-9.516,5.855-13.439,1.902Z"/>
  <rect class="cls-1" x="54.033" y="58.014" width="5.501" height="5.397"/>
</svg>