<?xml version="1.0" encoding="UTF-8"?>
<svg id="Logo_2" data-name="Logo 2" xmlns="http://www.w3.org/2000/svg" xmlns:xlink="http://www.w3.org/1999/xlink" viewBox="0 0 86.47 82.914">
  <defs>
    <style>
      .cls-1 {
        fill: url(#linear-gradient-2);
      }

      .cls-2 {
        fill: url(#linear-gradient);
      }

      .cls-3 {
        fill: #f9d73a;
      }

      .cls-4 {
        fill: #52ae50;
      }

      .cls-5 {
        fill: #52af51;
      }
    </style>
    <linearGradient id="linear-gradient" x1="2.041" y1="39.022" x2="37.803" y2="39.022" gradientUnits="userSpaceOnUse">
      <stop offset="0" stop-color="#3d879d"/>
      <stop offset=".999" stop-color="#2c3e50"/>
    </linearGradient>
    <linearGradient id="linear-gradient-2" x1="48.615" y1="42.345" x2="84.428" y2="42.345" xlink:href="#linear-gradient"/>
  </defs>
  <path class="cls-3" d="M27.93,26.272l15.169,11.324.443-.074,10.026-7.607c1.122.188,3.559.391,4.478.792.46.201,1.268,1.421,1.622,1.897.106.143.105.377.147.433l-11.199,8.398.199.454,9.569,7.021c-.365.683-.543,1.758-1.172,2.406-.604.623-3.043.565-3.911.398-1.227-.236-1.261-1.781-2.519-1.631-.075.009-.699.232-.728.258l-6.512-4.874-.443-.074-8.662,6.64c-2.871-.458-5.743-.75-8.589-1.301,3.887-3.139,8.056-5.968,11.956-9.068v-.339l-18.593-14.012c.466-.408,1.279-1.456,1.894-1.554.939-.149,4.895-.147,5.855-.014.365.051.693.303.97.527Z"/>
  <path class="cls-2" d="M25.848,50.731c-.63-.122-1.196.164-1.752-.525l-2.344-4.812-6.96-3.32c-.99-.648-1.602-3.083-2.358-3.498-1.067-.586-5.361.028-6.922-.236-.412-.07-2.983-1.313-3.221-1.593-.625-.734.077-1.463.468-2.138.96-1.653,2.353-3.999,3.486-5.492.448-.59.528-.696,1.313-.769,3.217-.299,6.882.241,10.147-.003.57-.088,1.08-.66,1.505-1.032l18.593,14.012v.339c-3.9,3.1-8.069,5.929-11.956,9.068Z"/>
  <path class="cls-4" d="M53.567,29.915l-10.026,7.607-.443.074-15.169-11.324c1.13-.002,2.094.798,3.19.909,3.441.349,7.683-.43,11.049.013,1.285.169,3.314,1.281,4.734,1.642,2.058.523,4.529.721,6.664,1.079Z"/>
  <path class="cls-5" d="M50.053,50.341c-.017.016-.047.259-.186.393-1.035.991-1.897,1.158-1.749,2.779.173,1.893.819,1.154,1.903,1.609.709.298.619,1.627.084,1.971-.395.254-3.105.191-3.672.054-2.973-1.118-6.244-3.643-9.171-4.622-.854-.286-1.929-.35-2.825-.493l8.662-6.64.443.074,6.512,4.874Z"/>
  <path class="cls-1" d="M84.406,48.724l-6.057-10.082c-.637-.565-2.573-.447-3.439-.4-.281-.224-.693-.126-1.041-.13-.13-.002-.26,0-.39,0-.837-.005-1.981.102-2.767-.031-1.367-.232-3.337-1.643-4.773-1.994-1.141-.279-2.837-.158-3.92-.505-.226-.072-.416-.295-.581-.46-.416-.416-1.227-1.55-1.624-2.084l-11.199,8.398.199.454,9.569,7.021c.017-.032.175-.093.238-.212.372-.703.673-1.868,1.632-1.861l6.755,1.712c.85.426,1.803,2.376,2.529,2.546,1.641.383,3.773.059,5.459.407.148.065.375-.122.435-.119.311.015.653.113,1.041.13.088.004.355.119.651.13,2.494.091,4.152-.414,6.377-1.496.656-.319,1.027-.613.907-1.422Z"/>
</svg>