<?xml version="1.0" encoding="UTF-8"?>
<svg id="Logo_2" data-name="Logo 2" xmlns="http://www.w3.org/2000/svg" xmlns:xlink="http://www.w3.org/1999/xlink" viewBox="0 0 86.47 82.914">
  <defs>
    <style>
      .cls-1 {
        fill: url(#linear-gradient);
      }
    </style>
    <linearGradient id="linear-gradient" x1="17.971" y1="41.457" x2="68.499" y2="41.457" gradientUnits="userSpaceOnUse">
      <stop offset="0" stop-color="#3d879d"/>
      <stop offset=".999" stop-color="#2c3e50"/>
    </linearGradient>
  </defs>
  <path class="cls-1" d="M44.945,7.805c7.836.705,14.553,7.646,15.127,15.461l.002,14.009h4.934c1.464,0,3.515,2.24,3.485,3.751l.006,30.262c-.178,2.07-1.813,3.704-3.881,3.881H21.982c-2.113-.088-3.839-1.785-4.012-3.881l.006-30.262c-.029-1.511,2.021-3.751,3.485-3.751h4.934l.002-14.009c.575-7.814,7.291-14.756,15.127-15.461.898-.081,2.523-.081,3.421,0ZM51.655,37.274v-13.485c0-3.898-4.365-7.428-8.084-7.57-3.985-.153-8.756,3.396-8.756,7.57v13.485h16.84ZM46.214,51.135c-4.26-4.26-10.486,3.068-5.151,6.532l.067.196c.219,1.566-.553,5.058.651,6.191.813.765,2.209.746,2.972-.066,1.133-1.204.335-4.631.607-6.234,2.281-1.491,2.837-4.635.853-6.619Z"/>
</svg>