<?xml version="1.0" encoding="UTF-8"?>
<svg id="Logo_2" data-name="Logo 2" xmlns="http://www.w3.org/2000/svg" xmlns:xlink="http://www.w3.org/1999/xlink" viewBox="0 0 86.47 82.914">
  <defs>
    <style>
      .cls-1 {
        fill: url(#linear-gradient);
        fill-rule: evenodd;
      }
    </style>
    <linearGradient id="linear-gradient" x1="4.634" y1="41.457" x2="81.836" y2="41.457" gradientUnits="userSpaceOnUse">
      <stop offset="0" stop-color="#3d879d"/>
      <stop offset=".999" stop-color="#2c3e50"/>
    </linearGradient>
  </defs>
  <path class="cls-1" d="M23.482,2.856h39.505c10.381,0,18.848,8.467,18.848,18.848v39.505c0,10.381-8.467,18.848-18.848,18.848H23.482c-10.381,0-18.848-8.467-18.848-18.848V21.704C4.634,11.323,13.102,2.856,23.482,2.856ZM64.872,40.74l-9.372-5.41-8.963-5.177c-.395-.229-.9-.094-1.129.301-.105.182-.137.397-.09.602l1.712,7.461h-13.72c-1.624,0-2.94,1.316-2.94,2.94s1.316,2.94,2.94,2.94h13.72l-1.712,7.462c-.104.444.172.888.616.992.205.048.42.016.602-.09l8.965-5.177,9.371-5.41c.396-.226.534-.731.307-1.127-.073-.128-.179-.234-.307-.307h0ZM24.125,64.979h20.672c1.624,0,2.94-1.316,2.94-2.94s-1.316-2.94-2.94-2.94h-17.733V23.815h17.734c1.624,0,2.94-1.316,2.94-2.94s-1.316-2.94-2.94-2.94h-20.672c-1.625,0-2.942,1.316-2.943,2.94v41.164c0,1.624,1.318,2.941,2.942,2.94h0Z"/>
</svg>