<?xml version="1.0" encoding="UTF-8"?>
<svg id="Logo_2" data-name="Logo 2" xmlns="http://www.w3.org/2000/svg" xmlns:xlink="http://www.w3.org/1999/xlink" viewBox="0 0 86.47 82.914">
  <defs>
    <style>
      .cls-1 {
        fill: url(#linear-gradient-2);
      }

      .cls-2 {
        fill: url(#linear-gradient);
      }
    </style>
    <linearGradient id="linear-gradient" x1="8.677" y1="42.306" x2="80.127" y2="42.306" gradientUnits="userSpaceOnUse">
      <stop offset="0" stop-color="#3d879d"/>
      <stop offset=".999" stop-color="#2c3e50"/>
    </linearGradient>
    <linearGradient id="linear-gradient-2" x1="16.368" y1="34.46" x2="56.712" y2="34.46" xlink:href="#linear-gradient"/>
  </defs>
  <path class="cls-2" d="M61.78,48.217c5.344,5.538,10.864,10.913,16.29,16.375,6.2,7.4-2.848,17.416-10.825,11.953l-17.554-17.391c-13.727,7.29-30.846,1.854-37.917-11.876-7.972-15.481.102-34.534,16.672-39.523,22.699-6.835,42.654,15.544,33.879,37.488-.211.529-.982,1.81-1.052,2.231-.087.523.266.493.507.744ZM34.265,10.074c-17.434,1.273-27.557,21.236-19.105,36.413,9.329,16.751,33.685,16.532,42.843-.265,9.53-17.479-4.041-37.587-23.738-36.148Z"/>
  <path class="cls-1" d="M35.054,23.501c7.536-.462,15.057,2.855,20.053,8.428.818.913,2.115,2.139,1.394,3.428-.464.83-2.374,2.701-3.143,3.401-10.341,9.413-25.232,8.837-34.871-1.24-.603-.63-2.12-2.218-2.12-3.049,0-.778,1.391-2.284,1.952-2.879,4.283-4.535,10.445-7.704,16.734-8.089ZM31.354,27.531c-4.224,1.063-8.232,3.616-11.02,6.939,2.752,3.318,6.689,5.755,10.85,6.94.248-.187-.014-.193-.086-.26-.617-.574-1.081-.986-1.573-1.692-2.71-3.884-1.831-9.021,1.83-11.927ZM41.848,41.407c4.238-1.119,8.134-3.613,10.949-6.938-2.831-3.328-6.743-5.839-11.004-6.941l1.405,1.416c2.13,2.585,2.586,6.05,1.228,9.12-.605,1.368-1.577,2.287-2.579,3.344ZM36.176,32.86c-1.752.297-1.642,2.98-.02,3.237,2.75.435,2.746-3.699.02-3.237Z"/>
</svg>