<?xml version="1.0" encoding="UTF-8"?>
<svg id="Logo_2" data-name="Logo 2" xmlns="http://www.w3.org/2000/svg" xmlns:xlink="http://www.w3.org/1999/xlink" viewBox="0 0 86.47 82.914">
  <defs>
    <style>
      .cls-1 {
        fill: url(#linear-gradient-3);
      }

      .cls-2 {
        fill: url(#linear-gradient-2);
      }

      .cls-3 {
        fill: url(#linear-gradient);
      }
    </style>
    <linearGradient id="linear-gradient" x1="6.142" y1="48.632" x2="80.328" y2="48.632" gradientUnits="userSpaceOnUse">
      <stop offset="0" stop-color="#3d879d"/>
      <stop offset=".999" stop-color="#2c3e50"/>
    </linearGradient>
    <linearGradient id="linear-gradient-2" x1="28.625" y1="11.651" x2="57.847" y2="11.651" xlink:href="#linear-gradient"/>
    <linearGradient id="linear-gradient-3" x1="28.628" y1="48.7" x2="57.844" y2="48.7" xlink:href="#linear-gradient"/>
  </defs>
  <path class="cls-3" d="M28.625,18.897c-.058,2.416-.33,6.975.04,9.175.47,2.798,4.763,2.798,5.233,0,.417-2.48-.044-6.475.04-9.175,6.195-.016,12.4-.016,18.596,0,.083,2.699-.377,6.695.04,9.175.47,2.798,4.763,2.798,5.233,0,.37-2.2.098-6.759.04-9.175,2.361.011,6.57-.351,8.678.039.9.166,1.561.982,1.863,1.79l11.831,48.438c.736,4.501-2.316,8.784-6.842,9.344H13.26c-4.481-.404-7.635-4.617-7.048-9.053l11.797-48.473c.254-.916.95-1.864,1.938-2.047,2.108-.39,6.317-.028,8.678-.039ZM42.863,27.566c-1.589.233-3.138,2.816-4.44,3.868-1.089.879-2.665,1.613-4.072,1.739-1.54.138-3.469-.34-4.798-.148-1.109.16-1.773,1.044-2.078,2.07.207,3.337.671,6.123-1.587,8.875-1.114,1.358-3.917,2.989-3.917,4.73,0,1.932,2.24,2.941,3.419,4.231,1.092,1.195,2.074,2.93,2.237,4.57.153,1.536-.314,3.469-.149,4.799.1.81.733,1.675,1.478,2.008,1.291.578,2.996-.126,4.406-.093,2.043.047,4.038.932,5.559,2.248,1.695,1.466,2.721,4.41,5.427,3.272,1.002-.422,2.098-2.258,3.036-3.106,1.566-1.415,3.574-2.364,5.726-2.414,1.83-.042,3.963,1.089,5.322-.651.295-.378.503-.784.562-1.264.164-1.329-.303-3.263-.149-4.799.164-1.64,1.145-3.374,2.237-4.57,1.19-1.303,3.419-2.258,3.419-4.231,0-1.74-2.804-3.372-3.917-4.73-.862-1.051-1.603-2.537-1.74-3.905-.153-1.533.315-3.474.149-4.799-.134-1.072-.968-2.082-2.074-2.241-1.285-.185-3.159.275-4.641.157-1.444-.115-3.01-.776-4.141-1.67-1.559-1.233-3.12-4.261-5.275-3.945Z"/>
  <path class="cls-2" d="M57.847,18.897c-1.769-.008-3.544.005-5.313,0-.161-5.246-3.06-8.828-8.543-9.14-6.071-.345-9.869,3.178-10.053,9.14-1.769.005-3.544-.008-5.313,0,.079-3.281.225-5.299,2.091-8.12,5.65-8.544,19.525-8.481,25.107.099,1.815,2.789,1.947,4.8,2.024,8.021Z"/>
  <path class="cls-1" d="M53.531,38.488c-.215,3.906,1.473,7.605,4.313,10.212-2.768,2.748-4.445,6.253-4.387,10.222-.187.268-1.78.137-2.289.201-2.989.377-5.73,2.067-7.871,4.094-2.904-2.551-6.199-4.347-10.2-4.212-.22-1.213-.227-2.433-.509-3.642-.604-2.593-2.156-4.772-3.961-6.663,2.84-2.607,4.528-6.306,4.313-10.212,3.886.087,7.583-1.497,10.235-4.304.99.785,1.878,1.642,2.962,2.316,2.267,1.409,4.693,2.114,7.393,1.988ZM37.881,41.184c-3.869.619-1.982,6.747,1.655,4.978,2.569-1.25,1.353-5.459-1.655-4.978ZM47.177,41.683c-.386.062-.831.269-1.123.536l-9.531,9.563c-1.629,2.438,1.253,5.388,3.88,3.548,3.102-2.172,6.287-6.923,9.381-9.381,1.491-2.082-.082-4.674-2.606-4.266ZM50.153,51.827c-2.164-2.164-5.859.595-4.17,3.257,2.08,3.278,6.905-.522,4.17-3.257Z"/>
</svg>