<?xml version="1.0" encoding="UTF-8"?>
<svg id="Logo_2" data-name="Logo 2" xmlns="http://www.w3.org/2000/svg" xmlns:xlink="http://www.w3.org/1999/xlink" viewBox="0 0 86.47 82.914">
  <defs>
    <style>
      .cls-1 {
        fill: url(#linear-gradient-3);
      }

      .cls-2 {
        fill: url(#linear-gradient-2);
      }

      .cls-3 {
        fill: url(#linear-gradient);
      }
    </style>
    <linearGradient id="linear-gradient" x1="52.454" y1="51.784" x2="79.428" y2="51.784" gradientUnits="userSpaceOnUse">
      <stop offset="0" stop-color="#3d879d"/>
      <stop offset=".999" stop-color="#2c3e50"/>
    </linearGradient>
    <linearGradient id="linear-gradient-2" x1="7.042" y1="44.645" x2="76.222" y2="44.645" xlink:href="#linear-gradient"/>
    <linearGradient id="linear-gradient-3" x1="7.042" y1="18.589" x2="76.222" y2="18.589" xlink:href="#linear-gradient"/>
  </defs>
  <path class="cls-3" d="M79.329,40.48c-.233,3.894.313,8.15,0,12.001-.546,6.727-5.606,13.692-11.905,16.121-1.283.495-1.614.53-2.917.043-4.119-1.541-8.155-5.501-10.051-9.432-2.839-5.884-1.761-11.919-1.959-18.244.314-2.47,2.764-1.928,4.554-2.223,3.765-.621,4.79-2.35,7.694-3.883,2.058-1.086,3.809,1.215,5.505,2.203,2.701,1.573,4.239,1.485,7.16,1.875.959.128,1.436.793,1.919,1.54ZM70.119,46.729c-.346.01-.896.163-1.168.386l-3.952,4.375c-.145,0-1.535-1.901-1.903-2.189-1.947-1.529-4.391.578-3.23,2.665.382.687,2.232,2.665,2.872,3.341,1.074,1.135,2.302,2.23,3.813.845,1.073-.983,4.527-4.855,5.272-6.023.957-1.499.078-3.452-1.704-3.399Z"/>
  <path class="cls-2" d="M76.222,27.35v7.342c-4.441-.146-6.354-4.757-10.94-4.374-2.839.237-4.794,2.926-7.416,3.879-2.096.761-4.179.253-6.192,1.29-1.958,1.009-3.221,3.017-3.404,5.208-.259,3.083-.178,7.884-.008,11.016.194,3.577,1.26,7.046,2.83,10.23H10.924c-1.385,0-3.883-2.628-3.883-4.024v-30.567h69.181ZM16.323,37.408c-1.978.332-2.366,3.235-.384,3.987,1.556.591,4.194.236,4.244-1.833.053-2.187-2.15-2.441-3.86-2.154ZM36.36,37.987c-.257-.258-.924-.571-1.29-.616-2.75.307-6.39-.405-9.03.012-2.26.357-2.403,3.813.169,4.19,1.723.252,6.937.231,8.701.021,1.803-.214,2.769-2.284,1.45-3.607ZM16.323,46.444c-2.302.467-2.225,3.87.12,4.189l18.483.013c2.59-.363,2.704-3.704.128-4.224l-18.731.021Z"/>
  <path class="cls-1" d="M76.222,23.256H7.042v-5.294c0-1.651,2.83-4.217,4.582-4.03l60.29.008c1.658-.05,4.308,2.461,4.308,4.022v5.294Z"/>
</svg>