<?xml version="1.0" encoding="UTF-8"?>
<svg id="Logo_2" data-name="Logo 2" xmlns="http://www.w3.org/2000/svg" xmlns:xlink="http://www.w3.org/1999/xlink" viewBox="0 0 86.47 82.914">
  <defs>
    <style>
      .cls-1 {
        fill: url(#linear-gradient-2);
      }

      .cls-2 {
        fill: url(#linear-gradient);
      }
    </style>
    <linearGradient id="linear-gradient" x1="-172.017" y1="28.958" x2="-171.517" y2="28.958" gradientUnits="userSpaceOnUse">
      <stop offset="0" stop-color="#3d879d"/>
      <stop offset=".999" stop-color="#2c3e50"/>
    </linearGradient>
    <linearGradient id="linear-gradient-2" y1="62.306" y2="62.306" xlink:href="#linear-gradient"/>
  </defs>
  <path class="cls-2" d="M20.271,9.513c5.771.44,14.798,4.029,13.017,11.332-.198.81-.619,1.541-.983,2.279,3.835,5.876,5.993,12.712,8.186,19.336l2.598-5.2c2.032-3.521,4.376-6.87,7.014-9.959.984-1.153,2.35-2.347,3.238-3.501,1.143-1.487-.451-3.103-1.994-1.869-2.12,1.694-5.335,5.965-6.965,8.261-.697.982-1.729,3.049-2.466,3.774-.758.746-2.043.435-2.391-.585-.352-1.03-.475-2.998-.413-4.091.648-11.359,16.007-16.166,25.404-16.904.991-.078,2.956-.258,3.86-.118.427.066.889.398,1.093.778.607,1.132-.548,1.825-1.124,2.669-3.948,5.778-2.952,14.082-5.579,20.38-2.496,5.986-10.052,8.198-15.83,5.725-.381-.163-2.325-1.31-2.446-1.225-.654,1.529-1.366,3.029-1.971,4.582-.341.876-.584,2.53-1.341,3.026-.734.481-1.626.134-1.998-.623-2.26-6.704-4.235-14.008-7.565-20.266-.188-.353-1.212-2.234-1.522-2.184-2.433,1.582-5.709,1.346-7.989-.411-3.324-2.562-2.295-8.162-4.055-11.67-.665-1.325-2.215-2.2-.272-3.535.815.045,1.689-.062,2.496,0Z"/>
  <path class="cls-1" d="M23.355,51.223l33.802-.033c.939.013,1.497.804,1.322,1.699l-5.474,19.248c-.164.532-.385.984-.943,1.179l-22.749.102c-.496.035-.828-.283-1.109-.639l-5.783-19.803c-.164-.757.206-1.486.933-1.753Z"/>
</svg>