<?xml version="1.0" encoding="UTF-8"?>
<svg id="Logo_2" data-name="Logo 2" xmlns="http://www.w3.org/2000/svg" xmlns:xlink="http://www.w3.org/1999/xlink" viewBox="0 0 86.47 82.914">
  <defs>
    <style>
      .cls-1 {
        fill: url(#linear-gradient-7);
      }

      .cls-2 {
        fill: url(#linear-gradient-5);
      }

      .cls-3 {
        fill: url(#linear-gradient-6);
      }

      .cls-4 {
        fill: url(#linear-gradient-4);
      }

      .cls-5 {
        fill: url(#linear-gradient-3);
      }

      .cls-6 {
        fill: url(#linear-gradient-2);
      }

      .cls-7 {
        fill: url(#linear-gradient);
      }
    </style>
    <linearGradient id="linear-gradient" x1="10.23" y1="44.891" x2="67.384" y2="44.891" gradientUnits="userSpaceOnUse">
      <stop offset="0" stop-color="#3d879d"/>
      <stop offset=".999" stop-color="#2c3e50"/>
    </linearGradient>
    <linearGradient id="linear-gradient-2" x1="45.41" y1="59.034" x2="76.24" y2="59.034" xlink:href="#linear-gradient"/>
    <linearGradient id="linear-gradient-3" x1="11.182" y1="14.116" x2="32.35" y2="14.116" xlink:href="#linear-gradient"/>
    <linearGradient id="linear-gradient-4" x1="45.264" y1="14.116" x2="66.56" y2="14.116" xlink:href="#linear-gradient"/>
    <linearGradient id="linear-gradient-5" x1="34.96" y1="14.113" x2="42.654" y2="14.113" xlink:href="#linear-gradient"/>
    <linearGradient id="linear-gradient-6" x1="34.548" y1="28.542" x2="43.066" y2="28.542" xlink:href="#linear-gradient"/>
    <linearGradient id="linear-gradient-7" x1="20.122" y1="53.203" x2="25.205" y2="53.203" xlink:href="#linear-gradient"/>
  </defs>
  <path class="cls-7" d="M30.151,24.145v13.121c0,.332.605,1.09.894,1.304.778.577,1.487.528,2.359.163,1.746-.732,3.533-2.319,5.343-3.046l5.929,3.265c.761.121,1.596.043,2.154-.531.102-.105.632-.957.632-1.017v-13.258h19.922v16.212c-11.126-3.844-23.322,2.837-25.873,14.314-.841,3.782-.522,7.288.593,10.966H14.42c-1.596,0-4.19-2.599-4.19-4.19V24.145h19.922ZM28.867,59.544c.473-.444.676-1.311.733-1.946.204-2.276.167-6.217.008-8.522-.122-1.775-.707-2.635-2.55-2.808-2.271-.213-6.21-.157-8.522-.009-1.452.093-2.632.5-2.81,2.136-.242,2.22-.207,7.229-.005,9.486.094,1.048.61,1.91,1.68,2.167,1.356.326,8.473.269,10.073.095.448-.049,1.067-.292,1.394-.598Z"/>
  <path class="cls-6" d="M59.251,43.696c12.625-1.119,21.346,12.459,14.702,23.357-5.59,9.169-18.706,9.962-25.308,1.455-7.394-9.528-1.377-23.75,10.606-24.812ZM59.003,57.256h4.603c.317,0,1.275.421,1.571.627,1.889,1.315,1.825,4.139-.083,5.395-1.74,1.145-6.888.338-9.189.566-2.672.264-2.568,4.046-.137,4.273,2.076.194,6.304.183,8.385-.009,8.741-.804,9.601-14.662-1.366-15.254-1.253-.068-2.53.063-3.784.004.5-.783,1.767-1.449,1.914-2.412.3-1.956-1.573-3.205-3.283-2.322l-5.777,5.764c-.522.762-.516,1.723,0,2.475.574.837,4.612,4.819,5.494,5.498,1.917,1.476,4.414-.379,3.355-2.668-.352-.761-1.257-1.241-1.703-1.938Z"/>
  <path class="cls-5" d="M32.35,8.483l-1.786,11.266H11.192c-.039-.2.045-.338.108-.511.605-1.667,3.441-7.37,4.45-8.74.561-.761,2.267-2.016,3.205-2.016h13.395Z"/>
  <path class="cls-4" d="M66.56,19.749h-19.372l-1.923-11.266h13.395c.893,0,2.692,1.239,3.205,2.016l4.695,9.25Z"/>
  <polygon class="cls-2" points="34.96 19.749 36.824 8.477 40.867 8.484 42.654 19.749 34.96 19.749"/>
  <path class="cls-3" d="M43.066,24.145v8.793c-1.23-.41-2.927-2.042-4.19-2.072-1.381-.033-3.012,1.65-4.328,2.072v-8.793h8.518Z"/>
  <rect class="cls-1" x="20.122" y="50.662" width="5.083" height="5.083"/>
</svg>