<?xml version="1.0" encoding="UTF-8"?>
<svg id="Logo_2" data-name="Logo 2" xmlns="http://www.w3.org/2000/svg" xmlns:xlink="http://www.w3.org/1999/xlink" viewBox="0 0 86.47 82.914">
  <defs>
    <style>
      .cls-1 {
        fill: url(#linear-gradient-3);
      }

      .cls-2 {
        fill: url(#linear-gradient-2);
      }

      .cls-3 {
        fill: url(#linear-gradient);
      }
    </style>
    <linearGradient id="linear-gradient" x1="44.368" y1="46.56" x2="76.519" y2="46.56" gradientUnits="userSpaceOnUse">
      <stop offset="0" stop-color="#3d879d"/>
      <stop offset=".999" stop-color="#2c3e50"/>
    </linearGradient>
    <linearGradient id="linear-gradient-2" x1="9.951" y1="46.544" x2="42.068" y2="46.544" xlink:href="#linear-gradient"/>
    <linearGradient id="linear-gradient-3" x1="29.265" y1="23.73" x2="56.924" y2="23.73" xlink:href="#linear-gradient"/>
  </defs>
  <path class="cls-3" d="M44.66,74.616l-.186-.415c.273-5.764-.342-11.828.001-17.557.175-2.919,1.309-5.609,3.434-7.623,4.152-2.72,8.069-6.546,12.228-9.164,3.539-2.228,7.063,1.138,5.234,4.753l-5.963,8.338c-.583,1.379,1.252,2.389,2.2,1.239,2.317-4.227,8.716-8.835,6.33-14.146-.333-.742-1.156-1.284-.956-2.111l4.322-17.791c1.063-2.48,4.903-2.058,5.148.692.312,3.502-.59,7.618-.36,11.186-1.127,7.352,1.113,16.027-3.443,22.395l-16.091,20.203h-11.898Z"/>
  <path class="cls-2" d="M29.878,74.616l-16.091-20.203c-3.586-4.701-2.815-10.914-3.073-16.516-.214-4.643-.465-9.287-.601-13.941-.046-1.583-.658-3.794.844-4.914,1.517-1.131,3.474-.501,4.206,1.187l4.29,17.702c.197.824-.616,1.372-.956,2.111-2.411,5.256,4.036,9.953,6.33,14.146.953,1.14,2.744.174,2.201-1.238l-5.963-8.339c-1.835-3.616,1.704-6.978,5.234-4.753,4.159,2.621,8.075,6.442,12.228,9.164,2.11,2,3.261,4.726,3.434,7.623.342,5.729-.271,11.792.001,17.557l-.186.415h-11.898Z"/>
  <path class="cls-1" d="M42.889,8.302c.616-.086,2.858.942,3.703,1.169,3.119.839,6.174.904,9.357.375.468.071.894.534.912,1.013-.26,7.528,1.236,14.679-2.837,21.445-5.429,9.02-16.124,9.198-21.707.214-4.219-6.788-2.788-14.351-2.927-21.962.119-.383.698-.698,1.09-.723.717-.046,2.046.333,2.877.374,2.591.125,5.379-.393,7.821-1.202.501-.166,1.261-.64,1.71-.702ZM47.449,19.481c-.178.041-.32.148-.448.272l-5.466,5.468c-.197,0-2.124-2.461-2.914-2.616-.955-.188-1.767.814-1.325,1.69l3.583,3.627c.334.248.792.251,1.166.094l6.865-6.834c.479-1.054-.36-1.955-1.462-1.702Z"/>
</svg>