<?xml version="1.0" encoding="UTF-8"?>
<svg id="Logo_2" data-name="Logo 2" xmlns="http://www.w3.org/2000/svg" xmlns:xlink="http://www.w3.org/1999/xlink" viewBox="0 0 86.47 82.914">
  <defs>
    <style>
      .cls-1 {
        fill: url(#linear-gradient-3);
      }

      .cls-2 {
        fill: url(#linear-gradient-2);
      }

      .cls-3 {
        fill: url(#linear-gradient);
      }
    </style>
    <linearGradient id="linear-gradient" x1="10.626" y1="41.457" x2="75.844" y2="41.457" gradientUnits="userSpaceOnUse">
      <stop offset="0" stop-color="#3d879d"/>
      <stop offset=".999" stop-color="#2c3e50"/>
    </linearGradient>
    <linearGradient id="linear-gradient-2" x1="33.453" y1="46.146" x2="53.334" y2="46.146" xlink:href="#linear-gradient"/>
    <linearGradient id="linear-gradient-3" x1="38.755" y1="27.59" x2="47.846" y2="27.59" xlink:href="#linear-gradient"/>
  </defs>
  <path class="cls-3" d="M44.21,77.244c-.413.053-1.406.053-1.818,0-1.228-.157-4.249-1.787-5.458-2.445-15.234-8.297-25.416-24.534-26.157-41.955-.133-3.129-.262-7.723,0-10.78.399-4.634,4.883-4.654,7.763-7.062.427-.357,1.041-.97,1.404-1.393,2.63-3.059,2.418-7.616,7.405-7.98h32.039c4.829.41,4.68,4.99,7.266,7.98.367.424.976,1.034,1.405,1.392,2.788,2.331,7.04,2.358,7.722,6.684.037,5.933.315,11.823-.707,17.682-2.577,14.776-12.033,28.054-25.128,35.292-1.227.678-4.497,2.426-5.737,2.584ZM42.503,18.124c-3.183.305-6.121,2.443-7.311,5.416-1.166,2.914-.37,6.178-.693,9.237-.588.193-1.133.144-1.753.344-1.811.584-3.128,2.319-3.366,4.186.593,7.408-2.847,19.615,7.275,21.828,2.309.505,9.7.43,12.224.188,4.247-.407,8.01-4.166,8.345-8.439.348-4.444-.261-9.347-.017-13.839-.379-1.765-1.596-3.359-3.349-3.924-.621-.2-1.166-.152-1.753-.344-.325-3.098.491-6.392-.735-9.335-1.434-3.443-5.136-5.676-8.865-5.318Z"/>
  <path class="cls-2" d="M34.383,36.998l17.455-.039c1.109.1,1.239.396,1.328,1.469.25,3.024.196,8,0,11.06-.171,2.692-1.61,5.359-4.553,5.657-2.492.252-8.133.252-10.626,0-2.108-.213-4.197-2.289-4.406-4.405-.406-4.106.306-8.838-.008-13.012-.014-.491.394-.635.809-.729ZM43.058,42.027c-.715.1-1.602.73-1.753,1.473-.162.795-.132,3.986-.032,4.863.257,2.253,3.531,2.302,3.996.359.178-.744.164-4.139.063-4.978-.125-1.042-1.259-1.86-2.274-1.718Z"/>
  <path class="cls-1" d="M47.846,32.909h-9.091v-7.063c0-.059.369-.951.444-1.094,1.617-3.094,6.007-3.363,7.921-.418.181.278.726,1.261.726,1.512v7.063Z"/>
</svg>