<?xml version="1.0" encoding="UTF-8"?>
<svg id="Logo_2" data-name="Logo 2" xmlns="http://www.w3.org/2000/svg" xmlns:xlink="http://www.w3.org/1999/xlink" viewBox="0 0 86.47 82.914">
  <defs>
    <style>
      .cls-1 {
        fill: url(#linear-gradient-3);
      }

      .cls-2 {
        fill: url(#linear-gradient-2);
      }

      .cls-3 {
        fill: url(#linear-gradient);
      }
    </style>
    <linearGradient id="linear-gradient" x1="10.319" y1="41.457" x2="76.151" y2="41.457" gradientUnits="userSpaceOnUse">
      <stop offset="0" stop-color="#3d879d"/>
      <stop offset=".999" stop-color="#2c3e50"/>
    </linearGradient>
    <linearGradient id="linear-gradient-2" x1="47.159" y1="41.463" x2="51.085" y2="41.463" xlink:href="#linear-gradient"/>
    <linearGradient id="linear-gradient-3" x1="61.499" y1="37.535" x2="65.347" y2="37.535" xlink:href="#linear-gradient"/>
  </defs>
  <path class="cls-3" d="M29.623,8.49h27.223l19.305,19.304v27.326l-19.305,19.304h-27.223l-19.305-19.304v-27.326L29.623,8.49ZM25.804,37.606h3.694c.288,0,.047-1.037.004-1.252-.745-3.717-4.849-5.65-8.245-3.971-5.018,2.481-3.969,9.794,1.609,10.919.99.2,2.131-.022,2.667,1.079,1.408,2.887-3.353,4.268-3.684.926h-3.694c-.276,0-.066.971-.023,1.168.988,4.587,6.714,6.323,9.964,2.841,2.939-3.148,1.469-8.48-2.707-9.577-1.344-.353-3.321-.027-3.517-2.007-.251-2.545,3.854-2.903,3.932-.126ZM42.038,31.779h-11.552v3.85h3.851v15.505h3.851v-15.505h3.851v-3.85ZM48.363,31.808c-2.647.319-4.779,2.697-4.976,5.326-.143,1.912-.247,8.076.181,9.713,1.199,4.585,7.232,5.833,10.169,2.094,2.293-2.92.756-8.665,1.204-12.218-.572-3.174-3.332-5.306-6.578-4.915ZM61.499,43.434h2.133c3.813,0,6.449-4.201,5.26-7.757-.566-1.692-2.76-3.898-4.635-3.898h-6.608v19.356h3.851v-7.701Z"/>
  <path class="cls-2" d="M47.798,46.728c-.327-.314-.509-.818-.555-1.266-.258-2.546.18-5.513.01-8.104.337-2.164,3.211-2.358,3.832-.213v8.624c-.403,1.476-2.149,2.051-3.288.959Z"/>
  <path class="cls-1" d="M63.84,35.629c.177.032.848.455.989.601.81.838.648,2.337-.343,2.959-.08.05-.611.29-.646.29h-2.342v-3.85c.705.087,1.675-.119,2.342,0Z"/>
</svg>