<?xml version="1.0" encoding="UTF-8"?>
<svg id="Logo_2" data-name="Logo 2" xmlns="http://www.w3.org/2000/svg" xmlns:xlink="http://www.w3.org/1999/xlink" viewBox="0 0 86.47 82.914">
  <defs>
    <style>
      .cls-1 {
        fill: url(#linear-gradient-4);
      }

      .cls-2 {
        fill: url(#linear-gradient-3);
      }

      .cls-3 {
        fill: url(#linear-gradient-2);
      }

      .cls-4 {
        fill: url(#linear-gradient);
      }
    </style>
    <linearGradient id="linear-gradient" x1="45.651" y1="52.649" x2="82.806" y2="52.649" gradientUnits="userSpaceOnUse">
      <stop offset="0" stop-color="#3d879d"/>
      <stop offset=".999" stop-color="#2c3e50"/>
    </linearGradient>
    <linearGradient id="linear-gradient-2" x1="5.694" y1="52.585" x2="41.143" y2="52.585" xlink:href="#linear-gradient"/>
    <linearGradient id="linear-gradient-3" x1="27.36" y1="16.603" x2="80.631" y2="16.603" xlink:href="#linear-gradient"/>
    <linearGradient id="linear-gradient-4" x1="8.009" y1="26.761" x2="58.217" y2="26.761" xlink:href="#linear-gradient"/>
  </defs>
  <path class="cls-4" d="M45.651,79.75v-35.753l14.862-7.37v8.223c0,.428.898,1.326,1.311,1.491,1.646.655,3.054-.406,3.201-2.095.262-3.026-.366-6.691-.011-9.635.016-.134.002-.267.127-.36l17.666-8.708v33.073c0,.826-1.135,2.635-1.826,3.169-10.098,5.373-20.349,10.556-30.573,15.718-1.174.593-3.258,1.839-4.387,2.192-.126.039-.235.079-.37.056Z"/>
  <path class="cls-3" d="M41.143,79.75L8.825,62.671c-1.284-.525-3.131-2.661-3.131-4.056V25.42l35.45,18.577v35.753Z"/>
  <path class="cls-2" d="M80.613,21.642l-16.928,8.354-.419.052c-11.178-5.931-22.431-11.728-33.576-17.721-.701-.377-1.46-.739-2.137-1.148-.108-.065-.242.063-.174-.253l13.925-7.333c1.417-.611,2.974-.564,4.39.04,9.957,5.149,20.042,10.055,30.007,15.188,1.324.682,2.734,1.332,4.019,2.072.173.1,1.049.539.892.75Z"/>
  <path class="cls-1" d="M58.197,32.488c.063.283-.038.194-.156.27-1.527.988-4.051,2.03-5.766,2.88-2.826,1.4-5.697,2.711-8.487,4.185l-.482.073L8.615,21.829l-.606-.488,14.528-7.716,35.661,18.863Z"/>
</svg>