<?xml version="1.0" encoding="UTF-8"?>
<svg id="Logo_2" data-name="Logo 2" xmlns="http://www.w3.org/2000/svg" xmlns:xlink="http://www.w3.org/1999/xlink" viewBox="0 0 86.47 82.914">
  <defs>
    <style>
      .cls-1 {
        fill: url(#linear-gradient-4);
      }

      .cls-2 {
        fill: url(#linear-gradient-3);
      }

      .cls-3 {
        fill: url(#linear-gradient-2);
      }

      .cls-4 {
        fill: url(#linear-gradient);
      }
    </style>
    <linearGradient id="linear-gradient" x1="19.626" y1="22.97" x2="66.842" y2="22.97" gradientUnits="userSpaceOnUse">
      <stop offset="0" stop-color="#3d879d"/>
      <stop offset=".999" stop-color="#2c3e50"/>
    </linearGradient>
    <linearGradient id="linear-gradient-2" x1="28.918" y1="56.345" x2="59.582" y2="56.345" xlink:href="#linear-gradient"/>
    <linearGradient id="linear-gradient-3" x1="48.681" y1="59.761" x2="74.727" y2="59.761" xlink:href="#linear-gradient"/>
    <linearGradient id="linear-gradient-4" x1="11.743" y1="57.168" x2="34.538" y2="57.168" xlink:href="#linear-gradient"/>
  </defs>
  <path class="cls-4" d="M45.072,36.05c-1.211-.155-2.467-.155-3.677,0v-6.41c-.087-.142-.198-.137-.343-.154-1.611-.189-3.601.126-5.271.003-7.345-.541-13.922-6.302-15.606-13.414-.267-1.127-.623-3.193-.537-4.311.069-.899.842-1.653,1.731-1.753,1.808-.203,5.281-.113,7.16-.004,6.211.362,11.898,4.264,14.704,9.741,2.685-5.183,7.782-8.905,13.628-9.625,2.692-.332,5.604.008,8.327-.103.936.127,1.639,1.012,1.652,1.935.124,8.813-7.335,16.827-16.066,17.522-1.706.136-3.718-.185-5.359.008-.145.017-.256.012-.343.154v6.41Z"/>
  <path class="cls-3" d="M39.756,73.019c-2.998-3.209-6.438-6.159-9.394-9.389-1.141-1.247-2.149-2.221-.792-3.878,1.775-2.167,4.549-4.135,6.312-6.31.612-.755.947-1.637,1.217-2.559.273-3.534.047-7.107.128-10.655.937-.148,1.883-.307,2.828-.401,6.875-.686,13.605.895,19.527,4.373l-12.86,12.928c-1.647,1.77-2.22,4.142-1.27,6.418,1.002,2.4,6.388,6.647,8.369,8.924.147.169.287.353.395.549h-14.46Z"/>
  <path class="cls-2" d="M74.156,72.487c-.295.295-.778.529-1.203.536l-13.4-.024-10.209-10.164c-.883-.986-.868-2.02-.049-3.035l13.333-13.301c.203-.04,1.347.967,1.578,1.175,6.087,5.464,10.099,13.581,10.481,21.818.044.956.18,2.283-.531,2.995Z"/>
  <path class="cls-1" d="M33.544,41.317v8.596c0,.332-.422,1.065-.645,1.343-3.233,4.024-10.764,7.625-6.31,13.761l7.948,8.002H13.221c-.628,0-1.377-1.041-1.441-1.639-.095-.889.015-2.265.101-3.18.897-9.652,6.266-18.288,14.357-23.507,2.204-1.422,4.756-2.75,7.307-3.376Z"/>
</svg>