<?xml version="1.0" encoding="UTF-8"?>
<svg id="Logo_2" data-name="Logo 2" xmlns="http://www.w3.org/2000/svg" xmlns:xlink="http://www.w3.org/1999/xlink" viewBox="0 0 86.47 82.914">
  <defs>
    <style>
      .cls-1 {
        fill: url(#linear-gradient-2);
      }

      .cls-2 {
        fill: url(#linear-gradient);
      }
    </style>
    <linearGradient id="linear-gradient" x1="23.263" y1="41.457" x2="63.205" y2="41.457" gradientUnits="userSpaceOnUse">
      <stop offset="0" stop-color="#3d879d"/>
      <stop offset=".999" stop-color="#2c3e50"/>
    </linearGradient>
    <linearGradient id="linear-gradient-2" x1="36.006" y1="48.735" x2="50.507" y2="48.735" xlink:href="#linear-gradient"/>
  </defs>
  <path class="cls-2" d="M56.05,45.522c13.46,10.799,6.675,30.067-9.921,32.162-19.141,2.416-31.375-19.026-15.712-32.134l.063-29.195c1.019-15.055,24.512-15.112,25.545,0l.024,29.166ZM42.044,12.323c-1.794.259-4.001,1.89-4.227,3.778-.151,10.647.228,21.344-.192,31.964-.58,2.022-2.372,2.67-3.691,4.038-5.373,5.573-4.136,13.22,2.623,16.843,11.617,6.227,26.215-6.264,16.016-16.843-1.459-1.513-3.562-2.271-3.852-4.704-.151-10.601.228-21.256-.192-31.826-.968-2.696-3.805-3.635-6.484-3.249Z"/>
  <path class="cls-1" d="M46.94,53.389c6.662,3.829,3.297,14.271-4.359,13.536-7.025-.675-9.041-10.057-2.982-13.605l.033-19.671c.679-4.188,6.565-4.186,7.243,0l.064,19.741Z"/>
</svg>