<?xml version="1.0" encoding="UTF-8"?>
<svg id="Logo_2" data-name="Logo 2" xmlns="http://www.w3.org/2000/svg" xmlns:xlink="http://www.w3.org/1999/xlink" viewBox="0 0 86.47 82.914">
  <defs>
    <style>
      .cls-1 {
        fill: url(#linear-gradient-3);
      }

      .cls-2 {
        fill: url(#linear-gradient-2);
      }

      .cls-3 {
        fill: url(#linear-gradient);
      }
    </style>
    <linearGradient id="linear-gradient" x1="7.407" y1="31.844" x2="69.916" y2="31.844" gradientUnits="userSpaceOnUse">
      <stop offset="0" stop-color="#3d879d"/>
      <stop offset=".999" stop-color="#2c3e50"/>
    </linearGradient>
    <linearGradient id="linear-gradient-2" x1="19.609" y1="60.005" x2="79.081" y2="60.005" xlink:href="#linear-gradient"/>
    <linearGradient id="linear-gradient-3" x1="7.389" y1="21.227" x2="36.968" y2="21.227" xlink:href="#linear-gradient"/>
  </defs>
  <path class="cls-3" d="M66.692,23.412c7.125,7.025,1.553,19.216-8.037,19.857H10.155c-3.73-.586-3.636-5.691.119-6.106l47.589.003c2.62-.099,5.11-1.974,5.736-4.549,1.609-6.618-7.613-8.621-8.935-2.153-.104.51-.046,1.03-.221,1.588-1.001,3.191-6.147,2.693-5.916-1.734.465-8.911,11.764-13.216,18.163-6.907Z"/>
  <path class="cls-2" d="M75.96,68.317c-4.477,4.505-11.903,4.042-15.894-.812-1.44-1.751-2.63-4.822-2.365-7.105.32-2.753,3.874-3.637,5.526-1.368.708.973.434,2.025.76,3.083,1.244,4.041,6.944,4.383,8.563.475,1.599-3.858-1.861-8.003-5.871-7.914l-44.426.005c-3.381-.568-3.576-5.169-.259-6.024l45.589-.084c9.557.447,15.457,12.619,8.376,19.744Z"/>
  <path class="cls-1" d="M22.835,22.089c-1.092,1.101-2.987.81-3.675-.595-.656-1.34.106-3.903.776-5.186,3.159-6.04,11.627-6.509,15.465-.883,4.166,6.108-.509,14.868-7.717,15.411-5.904.445-12.358-.347-18.321.001-2.54-.456-2.654-3.781-.194-4.5,5.67-.31,11.636.322,17.272-.022,2.977-.181,5.522-1.965,5.898-5.066.714-5.897-7.52-7.157-8.732-1.724-.208.932-.033,1.818-.771,2.563Z"/>
</svg>