<?xml version="1.0" encoding="UTF-8"?>
<svg id="Logo_2" data-name="Logo 2" xmlns="http://www.w3.org/2000/svg" xmlns:xlink="http://www.w3.org/1999/xlink" viewBox="0 0 86.47 82.914">
  <defs>
    <style>
      .cls-1 {
        fill: url(#linear-gradient-2);
      }

      .cls-2 {
        fill: url(#linear-gradient);
      }
    </style>
    <linearGradient id="linear-gradient" x1="6.977" y1="44.04" x2="65.52" y2="44.04" gradientUnits="userSpaceOnUse">
      <stop offset="0" stop-color="#3d879d"/>
      <stop offset=".999" stop-color="#2c3e50"/>
    </linearGradient>
    <linearGradient id="linear-gradient-2" x1="51.534" y1="17.423" x2="79.493" y2="17.423" xlink:href="#linear-gradient"/>
  </defs>
  <path class="cls-2" d="M47.243,10.768c-.94,3.933.306,7.921,2.906,10.918,3.132,3.61,7.212,6.843,10.437,10.421,1.422,1.128,3.103,1.712,4.926,1.784l.008,33.555c-.525,5.315-4.625,9.234-9.952,9.612-12.615-.591-25.956.792-38.487.009-5.337-.333-9.504-4.113-10.103-9.461l.027-47.682c.086-3.901,4.883-9.156,8.791-9.156h31.448ZM25.199,34.966c1.429-1.436.563-3.77-1.48-3.988-2.144-.229-4.966.213-4.209,3.078.51,1.93,4.54,2.065,5.689.91ZM33.134,31.017c-2.902.76-2.348,4.557.628,4.63,5.346-.329,11.364.511,16.631.017,3.686-.346,3.314-4.307.635-4.672l-17.894.025ZM21.331,42.659c-2.553.429-2.787,4.365.602,4.656,1.632.14,3.83-.135,3.977-2.191.18-2.519-2.722-2.777-4.579-2.465ZM33.134,42.659c-2.661.655-2.522,4.252.299,4.636h17.434c2.898-.395,2.954-4.15.162-4.661l-17.894.025ZM21.496,54.303c-2.866.419-2.807,4.379.275,4.653,1.755.156,4.142-.067,4.142-2.351,0-2.327-2.651-2.56-4.416-2.302ZM33.299,54.303c-2.782.426-2.722,4.18-.028,4.632l17.61.015c2.908-.326,2.96-4.292-.019-4.671l-17.563.024Z"/>
  <path class="cls-1" d="M58.524,5.639c2.704-.282,5.2.997,6.908,3.024,3.326-3.851,9.244-4.203,12.436.017,6.054,8.002-6.467,14.571-10.572,19.959-1.531,1.084-2.906.589-4.21-.487-2.206-1.82-8.928-8.447-10.35-10.669-3.099-4.845.132-11.253,5.788-11.842Z"/>
</svg>