<?xml version="1.0" encoding="UTF-8"?>
<svg id="objects" xmlns="http://www.w3.org/2000/svg" viewBox="0 0 2200 2200">
  <defs>
    <style>
      .cls-1 {
        fill: #121214;
      }

      .cls-2 {
        fill: #fff;
      }
    </style>
  </defs>
  <path class="cls-1" d="M2015.406,1100.001c0,505.564-409.841,915.405-915.405,915.405h-.002c-505.564,0-915.405-409.841-915.405-915.405v-.002c0-505.564,409.841-915.405,915.405-915.405h.002c505.564,0,915.405,409.841,915.405,915.405v.002Z"/>
  <path class="cls-2" d="M1371.218,1028.987l-15.253,122.45c-2.567,20.48-19.899,35.855-40.44,35.855h-198.347v512.022c-20.938,1.895-42.121,2.843-63.548,2.843-47.898,0-94.695-4.799-139.904-13.908v-500.957h-152.558c-14,0-25.431-11.493-25.431-25.523v-153.231c0-14.03,11.432-25.523,25.431-25.523h152.558v-229.831c0-141.035,113.861-255.354,254.315-255.354h177.989c14,0,25.432,11.493,25.432,25.523v153.231c0,14.03-11.432,25.523-25.432,25.523h-127.157c-56.151,0-101.695,45.728-101.695,102.154v178.754h213.6c24.515,0,43.466,21.58,40.44,45.972Z"/>
</svg>