<?xml version="1.0" encoding="UTF-8"?>
<svg id="objects" xmlns="http://www.w3.org/2000/svg" viewBox="0 0 2200 2200">
  <defs>
    <style>
      .cls-1 {
        fill: #121214;
      }

      .cls-2 {
        fill: #fff;
      }
    </style>
  </defs>
  <path class="cls-1" d="M2079.203,1100.001c0,540.798-438.404,979.202-979.202,979.202h-.002c-540.798,0-979.202-438.404-979.202-979.202v-.002c0-540.798,438.404-979.202,979.202-979.202h.002c540.798,0,979.202,438.404,979.202,979.202v.002Z"/>
  <path class="cls-2" d="M1365.669,586.367h-531.337c-136.908,0-247.957,111.049-247.957,247.957v531.337c0,136.908,111.05,247.957,247.957,247.957h531.337c136.908,0,247.957-111.05,247.957-247.957v-531.337c0-136.909-111.05-247.957-247.957-247.957ZM1525.07,1347.951c0,97.765-79.346,177.112-177.112,177.112h-495.915c-97.766,0-177.112-79.347-177.112-177.112v-495.915c0-97.766,79.346-177.112,177.112-177.112h495.915c97.766,0,177.112,79.346,177.112,177.112v495.915Z"/>
  <path class="cls-2" d="M1100.502,834.325c-146.65,0-265.669,119.019-265.669,265.669s119.019,265.669,265.669,265.669,265.669-119.02,265.669-265.669-119.019-265.669-265.669-265.669ZM1100.502,1277.106c-97.589,0-177.112-79.523-177.112-177.112s79.523-177.112,177.112-177.112,177.112,79.523,177.112,177.112-79.523,177.112-177.112,177.112Z"/>
  <path class="cls-2" d="M1383.882,869.747c-29.298,0-53.134-23.836-53.134-53.134s23.836-53.134,53.134-53.134,53.134,23.836,53.134,53.134-23.836,53.134-53.134,53.134Z"/>
</svg>