<?xml version="1.0" encoding="UTF-8"?>
<svg id="Logo_2" data-name="Logo 2" xmlns="http://www.w3.org/2000/svg" viewBox="0 0 216 107.078">
  <defs>
    <style>
      .cls-1 {
        fill: #e8dcc4;
      }
    </style>
  </defs>
  <path class="cls-1" d="M126.958,14.023h17.684v49.123h-4.21l-27.438-42.596v36.21l-4.211,6.386V14.023h4.982l26.667,41.333V18.234h-16.281l2.808-4.21Z"/>
  <g>
    <path class="cls-1" d="M64.374,59.354h36.641l6.529,4.402h-47.573V15.205h4.402v44.15Z"/>
    <path class="cls-1" d="M88.76,15.19h12.873v24.463c0,6.462-5.539,11.693-12.309,11.693-6.821,0-12.359-5.231-12.359-11.693V15.19h3.077v24.463c0,4.77,4.154,8.616,9.282,8.616,5.078,0,9.232-3.846,9.232-8.616v-21.386h-11.847l2.051-3.077Z"/>
    <path class="cls-1" d="M165.936,15.19l19.262,47.984h-4.456l-14.807-36.948-8.843,21.867h17.617l-2.742,4.113h-16.519l-4.387,10.968h-4.456l19.33-47.984Z"/>
  </g>
  <path class="cls-1" d="M109.174,72.615c.1.031.202.061.307.083,1.033.212,1.765.559,1.982,1.214.126.383.245.688.163,1.289-.024.178.474.136.482-.043.008-.158.002-.318.04-.47.222-.893.807-1.792,2.2-2.146.123-.031.298-.057.303-.15.008-.145-.22-.109-.352-.139-1.275-.294-2.047-.981-2.259-1.845-.034-.138.059-.74-.2-.8-.375-.082-.238.575-.24.692-.006.43-.123.837-.527,1.19-.458.401-.993.745-1.734.927-.062.015-.12.036-.178.058-.079.03-.074.113.011.139Z"/>
  <path class="cls-1" d="M179.599,72.615c.1.031.202.061.307.083,1.033.212,1.765.559,1.982,1.214.126.383.245.688.163,1.289-.024.178.474.136.482-.043.008-.158.002-.318.04-.47.222-.893.807-1.792,2.2-2.146.123-.031.298-.057.303-.15.008-.145-.22-.109-.352-.139-1.275-.294-2.047-.981-2.259-1.845-.034-.138.059-.74-.2-.8-.375-.082-.238.575-.24.692-.006.43-.123.837-.527,1.19-.458.401-.993.745-1.734.927-.062.015-.12.036-.178.058-.079.03-.074.113.011.139Z"/>
  <g>
    <path class="cls-1" d="M124.821,74.511c0,.013-.009.091-.027.234s-.027.271-.027.383v1.067c0,.111.018.233.055.367l-3.07-.055-3.515.055c-.259,0-.389-.049-.389-.146,0-.111.074-.167.221-.167.393,0,.623-.027.69-.083.067-.055.102-.254.102-.598v-6.329c0-.503-.044-.771-.129-.801-.086-.03-.301-.046-.645-.046-.146,0-.221-.043-.221-.129,0-.098.08-.147.239-.147h6.293v.127l.019.272c.024.181.073.725.146,1.632.013.061.019.133.019.217,0,.157-.043.236-.128.236-.11,0-.189-.123-.238-.368-.171-.932-.494-1.478-.971-1.638-.269-.086-.904-.129-1.905-.129h-.935v3.441h.438c.778,0,1.259-.064,1.441-.193s.304-.481.365-1.059c.037-.343.11-.515.221-.515.122,0,.184.123.184.368,0,.146-.009.374-.027.681s-.027.54-.027.699c0,.797.014,1.343.041,1.638.01.098.014.178.014.239,0,.196-.061.294-.181.294-.109,0-.182-.153-.219-.46-.072-.662-.193-1.058-.362-1.187-.17-.129-.647-.193-1.434-.193h-.454v3.975c1.795-.013,2.852-.062,3.169-.147.488-.135.775-.724.86-1.767.013-.184.08-.276.203-.276.122,0,.184.169.184.506Z"/>
    <path class="cls-1" d="M131.353,74.127c0,.684-.294,1.271-.883,1.759s-1.301.732-2.135.732c-.626,0-1.27-.19-1.932-.571-.074-.024-.123-.036-.147-.036-.073,0-.117.059-.129.174-.013.115-.03.217-.055.304-.025.086-.086.13-.185.13-.123,0-.184-.062-.184-.185,0-.024.012-.208.036-.552.024-.343.037-.638.037-.883v-.938c0-.232.062-.35.185-.35.122,0,.214.19.275.57.233,1.35.957,2.024,2.171,2.024,1.031,0,1.546-.514,1.546-1.539,0-.452-.123-.818-.368-1.099-.245-.281-.724-.599-1.435-.953-.933-.464-1.527-.83-1.785-1.1-.331-.354-.497-.793-.497-1.318,0-.672.245-1.225.736-1.658.49-.434,1.11-.65,1.858-.65.466,0,.963.142,1.49.424.062.036.11.055.147.055.086,0,.141-.089.165-.267s.099-.267.221-.267c.123,0,.185.062.185.184,0,.025-.007.074-.019.147-.024.196-.037.448-.037.754,0,.185.019.516.056.994.012.049.019.104.019.165,0,.147-.05.222-.147.222-.11,0-.19-.109-.239-.329-.11-.534-.334-.963-.672-1.285-.337-.322-.732-.483-1.187-.483-.883,0-1.324.47-1.324,1.41,0,.415.116.758.35,1.026.122.146.257.262.404.348s.576.299,1.288.641c.797.392,1.361.767,1.692,1.127s.497.785.497,1.273Z"/>
    <path class="cls-1" d="M138.013,74.127c0,.684-.294,1.271-.883,1.759s-1.301.732-2.135.732c-.626,0-1.27-.19-1.932-.571-.074-.024-.123-.036-.147-.036-.073,0-.117.059-.129.174-.013.115-.03.217-.055.304-.025.086-.086.13-.185.13-.123,0-.184-.062-.184-.185,0-.024.012-.208.036-.552.024-.343.037-.638.037-.883v-.938c0-.232.062-.35.185-.35.122,0,.214.19.275.57.233,1.35.957,2.024,2.171,2.024,1.031,0,1.546-.514,1.546-1.539,0-.452-.123-.818-.368-1.099-.245-.281-.724-.599-1.435-.953-.933-.464-1.527-.83-1.785-1.1-.331-.354-.497-.793-.497-1.318,0-.672.245-1.225.736-1.658.49-.434,1.11-.65,1.858-.65.466,0,.963.142,1.49.424.062.036.11.055.147.055.086,0,.141-.089.165-.267s.099-.267.221-.267c.123,0,.185.062.185.184,0,.025-.007.074-.019.147-.024.196-.037.448-.037.754,0,.185.019.516.056.994.012.049.019.104.019.165,0,.147-.05.222-.147.222-.11,0-.19-.109-.239-.329-.11-.534-.334-.963-.672-1.285-.337-.322-.732-.483-1.187-.483-.883,0-1.324.47-1.324,1.41,0,.415.116.758.35,1.026.122.146.257.262.404.348s.576.299,1.288.641c.797.392,1.361.767,1.692,1.127s.497.785.497,1.273Z"/>
    <path class="cls-1" d="M145.815,74.511c0,.013-.009.091-.027.234s-.027.271-.027.383v1.067c0,.111.018.233.055.367l-3.07-.055-3.515.055c-.259,0-.389-.049-.389-.146,0-.111.074-.167.221-.167.393,0,.623-.027.69-.083.067-.055.102-.254.102-.598v-6.329c0-.503-.044-.771-.129-.801-.086-.03-.301-.046-.645-.046-.146,0-.221-.043-.221-.129,0-.098.08-.147.239-.147h6.293v.127l.019.272c.024.181.073.725.146,1.632.013.061.019.133.019.217,0,.157-.043.236-.128.236-.11,0-.189-.123-.238-.368-.171-.932-.494-1.478-.971-1.638-.269-.086-.904-.129-1.905-.129h-.935v3.441h.438c.778,0,1.259-.064,1.441-.193s.304-.481.365-1.059c.037-.343.11-.515.221-.515.122,0,.184.123.184.368,0,.146-.009.374-.027.681s-.027.54-.027.699c0,.797.014,1.343.041,1.638.01.098.014.178.014.239,0,.196-.061.294-.181.294-.109,0-.182-.153-.219-.46-.072-.662-.193-1.058-.362-1.187-.17-.129-.647-.193-1.434-.193h-.454v3.975c1.795-.013,2.852-.062,3.169-.147.488-.135.775-.724.86-1.767.013-.184.08-.276.203-.276.122,0,.184.169.184.506Z"/>
    <path class="cls-1" d="M154.573,68.246c0,.086-.136.129-.405.129h-.46c-.11,0-.175.024-.193.074-.018.049-.027.216-.027.499v6.782c0,.444-.006.703-.019.777-.012.073-.067.11-.166.11-.135,0-.571-.515-1.308-1.544-.085-.136-.22-.32-.402-.554-.024-.037-.092-.129-.201-.277-.614-.813-1.725-2.343-3.332-4.588v5.835c0,.457.064.698.193.723s.364.037.708.037h.074c.146,0,.221.04.221.12,0,.092-.136.138-.405.138-.049,0-.251-.013-.607-.037-.184-.012-.35-.019-.496-.019-.123,0-.246.007-.368.019-.233.024-.484.037-.755.037-.196,0-.294-.046-.294-.138,0-.08.116-.12.35-.12h.165l.239-.019c.295-.024.448-.08.46-.167.013-.049.019-.229.019-.537v-5.096c0-.926-.055-1.482-.165-1.668-.147-.247-.436-.37-.865-.37-.307,0-.46-.052-.46-.155,0-.081.08-.121.239-.121h2.337l4.342,5.979v-5.113c0-.307-.012-.484-.036-.534-.025-.049-.123-.073-.295-.073h-.496c-.233,0-.35-.046-.35-.138,0-.057.058-.091.175-.103.116-.012.53-.018,1.241-.018.675,0,1.067.006,1.178.017s.166.048.166.112Z"/>
    <path class="cls-1" d="M162.687,73.748c0,.036-.006.141-.019.312-.049.662-.073,1.129-.073,1.398,0,.184.019.454.055.81v.129c0,.122-.049.184-.146.184-.099,0-.196-.104-.295-.312l-.165-.35c-.013-.024-.031-.062-.056-.11-.552.54-1.312.81-2.281.81-1.239,0-2.27-.413-3.091-1.239-.822-.826-1.233-1.863-1.233-3.112s.38-2.273,1.141-3.075,1.729-1.203,2.907-1.203c.92,0,1.693.239,2.318.718.049.05.099.074.147.074.062,0,.116-.08.166-.239.085-.271.189-.405.312-.405.086,0,.129.049.129.147,0,.013-.013.067-.037.165-.073.418-.116,1.037-.129,1.858-.012.516-.08.773-.202.773-.099,0-.166-.092-.202-.274-.123-.658-.271-1.146-.442-1.462-.393-.695-1.036-1.042-1.932-1.042-.748,0-1.343.359-1.784,1.078-.442.719-.663,1.693-.663,2.924s.245,2.205.736,2.924c.49.719,1.152,1.078,1.987,1.078.638,0,1.168-.215,1.592-.646.423-.43.701-1.026.837-1.79.062-.314.141-.472.239-.472.122,0,.184.116.184.35Z"/>
    <path class="cls-1" d="M170.654,74.511c0,.013-.009.091-.027.234s-.027.271-.027.383v1.067c0,.111.018.233.055.367l-3.07-.055-3.515.055c-.259,0-.389-.049-.389-.146,0-.111.074-.167.221-.167.393,0,.623-.027.69-.083.067-.055.102-.254.102-.598v-6.329c0-.503-.044-.771-.129-.801-.086-.03-.301-.046-.645-.046-.146,0-.221-.043-.221-.129,0-.098.08-.147.239-.147h6.293v.127l.019.272c.024.181.073.725.146,1.632.013.061.019.133.019.217,0,.157-.043.236-.128.236-.11,0-.189-.123-.238-.368-.171-.932-.494-1.478-.971-1.638-.269-.086-.904-.129-1.905-.129h-.935v3.441h.438c.778,0,1.259-.064,1.441-.193s.304-.481.365-1.059c.037-.343.11-.515.221-.515.122,0,.184.123.184.368,0,.146-.009.374-.027.681s-.027.54-.027.699c0,.797.014,1.343.041,1.638.01.098.014.178.014.239,0,.196-.061.294-.181.294-.109,0-.182-.153-.219-.46-.072-.662-.193-1.058-.362-1.187-.17-.129-.647-.193-1.434-.193h-.454v3.975c1.795-.013,2.852-.062,3.169-.147.488-.135.775-.724.86-1.767.013-.184.08-.276.203-.276.122,0,.184.169.184.506Z"/>
    <path class="cls-1" d="M177.185,74.127c0,.684-.294,1.271-.883,1.759s-1.301.732-2.135.732c-.626,0-1.27-.19-1.932-.571-.074-.024-.123-.036-.147-.036-.073,0-.117.059-.129.174-.013.115-.03.217-.055.304-.025.086-.086.13-.185.13-.123,0-.184-.062-.184-.185,0-.024.012-.208.036-.552.024-.343.037-.638.037-.883v-.938c0-.232.062-.35.185-.35.122,0,.214.19.275.57.233,1.35.957,2.024,2.171,2.024,1.031,0,1.546-.514,1.546-1.539,0-.452-.123-.818-.368-1.099-.245-.281-.724-.599-1.435-.953-.933-.464-1.527-.83-1.785-1.1-.331-.354-.497-.793-.497-1.318,0-.672.245-1.225.736-1.658.49-.434,1.11-.65,1.858-.65.466,0,.963.142,1.49.424.062.036.11.055.147.055.086,0,.141-.089.165-.267s.099-.267.221-.267c.123,0,.185.062.185.184,0,.025-.007.074-.019.147-.024.196-.037.448-.037.754,0,.185.019.516.056.994.012.049.019.104.019.165,0,.147-.05.222-.147.222-.11,0-.19-.109-.239-.329-.11-.534-.334-.963-.672-1.285-.337-.322-.732-.483-1.187-.483-.883,0-1.324.47-1.324,1.41,0,.415.116.758.35,1.026.122.146.257.262.404.348s.576.299,1.288.641c.797.392,1.361.767,1.692,1.127s.497.785.497,1.273Z"/>
  </g>
  <g>
    <path class="cls-1" d="M38.044,40.034c.835-4.583,2.491-9.01,4.887-13.009-.007-1.896-.228-3.775-.769-5.627-1.45,1.167-2.836,2.437-4.137,3.855-1.136,1.239-2.18,2.544-3.141,3.898-.048,1.206.044,2.415.297,3.609.44,2.782,1.428,5.158,2.864,7.274Z"/>
    <path class="cls-1" d="M66.294,91.764c-1.437.48-2.874.957-4.31,1.44,1.911.291,3.846.447,5.794.463.053-.299.104-.599.141-.9.153-1.229-.709-1.309-1.625-1.003Z"/>
    <path class="cls-1" d="M83.138,83.437c-2.201.437-4.431.682-6.661.748-.656.647-1.296,1.318-1.918,2.016-1.975,2.215-3.752,4.571-4.675,7.429,4.963-.216,9.966-1.336,14.771-3.476.026-.011.052-.025.077-.037,2.919-2.765,5.25-6.027,7.219-9.57-2.815,1.321-5.797,2.292-8.814,2.891Z"/>
    <path class="cls-1" d="M95.036,78.918c-1.476,2.838-3.188,5.535-5.321,7.99-.107.123-.092.296-.013.481,6.343-4.096,12.328-10.378,14.815-17.077-2.494,3.527-5.776,6.405-9.481,8.607Z"/>
    <path class="cls-1" d="M45.342,23.291c.04.005.087-.015.131-.022,1.059-1.393,2.21-2.71,3.455-3.941.354-.35.701-.708,1.071-1.042,1.641-1.482,4.048-3.685,6.193-4.404-.802.274-1.603.549-2.405.823.233-.103.467-.206.7-.309-.946.379-1.87.783-2.783,1.202-2.821,1.292-5.485,2.786-7.959,4.577.223.745.435,1.426.678,2.09.154.42.567.976.919,1.024Z"/>
    <path class="cls-1" d="M32.441,57.934c.066-.307-.392-.914-.761-1.112-1.611-.863-3.047-1.925-4.357-3.141.032,2.032.216,4.065.551,6.08,1.17-.309,2.337-.627,3.499-.962.425-.123.991-.506,1.068-.865Z"/>
    <path class="cls-1" d="M55.37,78.472c-.261-.17-.51-.358-.767-.534-4.452,1.401-8.349,3.756-11.674,7.074,4.56,3.553,9.818,6.087,15.392,7.464,5.397-1.366,10.433-4.49,14.28-8.361-6.085-.419-12.036-2.264-17.231-5.642Z"/>
    <path class="cls-1" d="M47.355,78.081c-.086-.311-.592-.596-.967-.71-.471-.143-.995-.112-1.497-.137-4.112-.205-7.969-1.278-11.62-3.046,2.295,3.752,5.125,7.034,8.358,9.774,1.77-1.573,3.525-3.165,5.267-4.77.278-.256.544-.801.458-1.112Z"/>
    <path class="cls-1" d="M39.123,57.333c-1.135-3.543-1.728-7.254-1.69-11.023-.032-.025-.062-.052-.094-.078-2.606-2.063-5.433-3.502-8.611-3.927-.732,2.746-1.187,5.562-1.346,8.399,2.803,3.335,7.34,5.864,11.741,6.629Z"/>
    <path class="cls-1" d="M35.96,41.773c.191-.149.122-.84-.029-1.203-.389-.938-1.05-1.785-1.313-2.749-.405-1.484-.928-4-1.384-6.148-1.718,2.853-3.076,5.895-4.052,9.05,1.814.435,3.626.877,5.445,1.282.424.095,1.012.019,1.332-.232Z"/>
    <path class="cls-1" d="M50.786,74.971c-4.158-3.656-7.573-8.161-9.909-13.157-.823-.236-1.658-.448-2.511-.622-3.456-.707-6.867-.69-10.172.266.574,2.732,1.43,5.42,2.585,8.017.216.485.448.957.68,1.429,5.604,3.339,11.889,4.931,19.325,4.068Z"/>
  </g>
</svg>