<?xml version="1.0" encoding="UTF-8"?>
<svg id="objects" xmlns="http://www.w3.org/2000/svg" viewBox="0 0 2200 2200">
  <defs>
    <style>
      .cls-1 {
        fill: #315b6d;
      }
    </style>
  </defs>
  <path class="cls-1" d="M1941.908,1260.654v39.462c-6.322,21.197-12.976,42.154-27.914,59.231l-532.786,532.68-27.199,12.263-204.623,37.079h-26.308c-23.297-11.729-38.2-26.565-39.558-54.091,17.461-79.189,22.583-161.748,47.309-239.052l530.002-532.175c39.973-33.887,81.68-53.447,132.719-27.665,25.055,12.656,119.879,108.013,133.188,133.178,6.595,12.47,8.956,26.564,15.169,39.091Z"/>
  <path class="cls-1" d="M468.672,468.131v110.164c0,80.869,94.934,163.327,172.527,169.475,137.388,10.886,288.853-8.484,427.739,0,84.543-5.786,172.526-93.852,172.526-179.341v-100.298c114.222-7.685,202.902,76.371,210.597,188.952l-1.839,471.97-251.339,251.472-678.873-1.122c-48.653,4.583-71.462,63.831-29.955,94.992,2.441,1.833,15.476,9.873,16.435,9.873h583.704c1.432,5.739-2.373,6.573-4.912,9.887-15.105,19.722-41.067,37.785-57.472,57.624-46.012,55.644-43.682,113.64-61.472,179.26l-535.084-.536c-93.393-11.47-164.67-84.897-173.162-178.705l.517-910.625c12.431-105.19,104.363-180.629,210.063-173.045ZM507.243,925.983c-59.177,22.87-47.852,97.989,15.727,104.439h664.196c64.906-6.52,72.806-89.691,9.978-105.268l-689.901.829ZM510.541,1152.898c-58.982,17.122-54.262,94.361,5.81,104.471l674.149.005c64.737-9.241,66.847-91.795,3.354-105.313l-683.312.837Z"/>
  <path class="cls-1" d="M668.809,398.615c55.011-186.152,314.742-186.783,371.92-1.049,38.711,7.879,111.359-16.507,126.175,34.96,5.58,19.382,4.541,115.36,2.181,139.161-5.515,55.615-53.162,98.894-107.199,106.552-132.251-7.168-276.708,10.76-407.534.473-65.661-5.163-111.169-55.705-116.572-120.198-2.2-26.265-3.392-89.631.731-114.264,10.896-65.093,84.325-40.407,130.298-45.635Z"/>
</svg>