<?xml version="1.0" encoding="UTF-8"?>
<svg id="objects" xmlns="http://www.w3.org/2000/svg" viewBox="0 0 2200 2200">
  <defs>
    <style>
      .cls-1 {
        fill: #315b6d;
      }
    </style>
  </defs>
  <path class="cls-1" d="M485.859,302.822l48.938,319.494,1375.878.03v6.521l-179.762,873.374-1191.389.294c-82.759,11.027-84.028,124.397-2.843,140.046l961.663.169c147.758,12.597,208.733,198.851,91.105,293.486-134.103,107.889-321.198-39.782-252.614-195.556h-329.305c54.775,125.544-55.157,258.032-189.137,226.632-98.713-23.134-152.077-134.111-110.824-226.632h-180.955c-34.164,0-87.93-34.256-109.301-60.242-94.509-114.919-5.74-284.69,140.29-275.574l.11-4.904-158.257-999.325h-158.132v-97.813h244.534ZM922.759,857.099h-97.813v405.926l4.891,4.891h92.923v-410.817ZM1118.386,857.099h-97.813v405.926l4.891,4.891h92.923v-410.817ZM1314.013,857.099h-97.813v405.926l4.891,4.891h92.923v-410.817ZM1509.64,857.099h-97.813v405.926l4.891,4.891h92.923v-410.817Z"/>
</svg>