<?xml version="1.0" encoding="UTF-8"?>
<svg id="objects" xmlns="http://www.w3.org/2000/svg" viewBox="0 0 2200 2200">
  <defs>
    <style>
      .cls-1 {
        fill: #121214;
      }

      .cls-2 {
        fill: #fff;
      }
    </style>
  </defs>
  <path class="cls-1" d="M2031.681,1100.001c0,514.553-417.127,931.68-931.68,931.68h-.002c-514.553,0-931.68-417.127-931.68-931.68v-.002c0-514.553,417.127-931.68,931.68-931.68h.002c514.553,0,931.68,417.127,931.68,931.68v.002Z"/>
  <path class="cls-2" d="M1234.454,1014.409l376.891-403.115h-143.13l-295.823,316.42-226.529-316.42h-391.453l396.278,553.538-396.278,423.86h143.13l315.223-337.165,241.376,337.165h391.453l-411.137-574.283ZM756.109,714.958h136.478l551.305,770.072h-136.478l-551.305-770.072Z"/>
</svg>